<svg width="110" height="95" viewBox="0 0 110 95" fill="none" xmlns="http://www.w3.org/2000/svg">
<path d="M96.1551 21.2311C96.1551 25.8708 91.7845 29.6452 86.4125 29.6452C81.0402 29.6452 76.6698 25.8705 76.6698 21.2311V19.7798H64.7428V21.2311C64.7428 25.8708 60.3721 29.6452 55.0001 29.6452C49.6281 29.6452 45.2575 25.8705 45.2575 21.2311V19.7798H33.3307V21.2311C33.3307 25.8708 28.9598 29.6452 23.5878 29.6452C18.2158 29.6452 13.8454 25.8705 13.8454 21.2311V19.7798H7.39243V32.136H102.608V19.7798H96.1548V21.2311H96.1551Z" fill="#4A4A4A"/>
<path d="M105.925 14.0495H96.1548V8.41459C96.1551 3.77465 91.7845 0 86.4122 0C81.0399 0 76.6695 3.77465 76.6695 8.41459V14.0495H64.7425V8.41459C64.7425 3.77465 60.3721 0 54.9999 0C49.6278 0 45.2572 3.77465 45.2572 8.41459V14.0495H33.3305V8.41459C33.3307 3.77465 28.9598 0 23.5878 0C18.2158 0 13.8451 3.77465 13.8451 8.41459V14.0495H4.07483C2.24242 14.0495 0.75724 15.3324 0.75724 16.9147V83.3764C0.75724 89.7858 6.7947 95 14.2162 95H95.7841C103.206 95 109.243 89.7858 109.243 83.3764V16.9147C109.243 15.3324 107.758 14.0495 105.925 14.0495ZM102.608 32.136H7.39242V19.7799H13.8454V21.2311C13.8454 25.8708 18.2161 29.6452 23.5878 29.6452C28.9598 29.6452 33.3307 25.8705 33.3307 21.2311V19.7799H45.2575V21.2311C45.2575 25.8708 49.6281 29.6452 55.0001 29.6452C60.3724 29.6452 64.7428 25.8705 64.7428 21.2311V19.7799H76.6698V21.2311C76.6698 25.8708 81.0405 29.6452 86.4125 29.6452C91.7848 29.6452 96.1551 25.8705 96.1551 21.2311V19.7799H102.608V32.136H102.608ZM83.3047 8.41459C83.3047 6.93448 84.6984 5.73039 86.4122 5.73039C88.1254 5.73039 89.5197 6.93448 89.5197 8.41459V21.2311C89.5197 22.7107 88.1254 23.9148 86.4122 23.9148C84.6984 23.9148 83.3047 22.7107 83.3047 21.2311V8.41459ZM51.8927 8.41459C51.8927 6.93448 53.2866 5.73039 55.0001 5.73039C56.7134 5.73039 58.1076 6.93448 58.1076 8.41459V16.9123C58.1076 16.9128 58.1076 16.9137 58.1076 16.9147C58.1076 16.9151 58.1076 16.9161 58.1076 16.9171V21.2311C58.1076 22.7107 56.7134 23.9148 55.0001 23.9148C53.2866 23.9148 51.8927 22.7107 51.8927 21.2311V8.41459ZM20.4803 8.41459C20.4803 6.93448 21.8743 5.73039 23.5878 5.73039C25.3016 5.73039 26.6955 6.93448 26.6955 8.41459V16.9099C26.6955 16.9113 26.6953 16.9128 26.6953 16.9144C26.6953 16.9159 26.6955 16.9173 26.6955 16.9192V21.2311C26.6955 22.7107 25.3016 23.9148 23.5878 23.9148C21.8745 23.9148 20.4806 22.7107 20.4806 21.2311V8.41459H20.4803ZM102.608 83.3764C102.608 86.6258 99.5465 89.2696 95.7838 89.2696H14.2159C10.4535 89.2696 7.39215 86.626 7.39215 83.3764V37.8659H102.608V83.3764Z" fill="#4A4A4A"/>
<path d="M17.1627 51.9894H92.8373C94.6694 51.9894 96.1549 50.7065 96.1549 49.1242C96.1549 47.5419 94.6694 46.259 92.8373 46.259H17.1627C15.3303 46.259 13.8451 47.5419 13.8451 49.1242C13.8451 50.7065 15.3303 51.9894 17.1627 51.9894Z" fill="#4A4A4A"/>
<path d="M17.1627 65.2731H92.8373C94.6694 65.2731 96.1549 63.9902 96.1549 62.4079C96.1549 60.8256 94.6694 59.5427 92.8373 59.5427H17.1627C15.3303 59.5427 13.8451 60.8256 13.8451 62.4079C13.8451 63.9902 15.3303 65.2731 17.1627 65.2731Z" fill="#4A4A4A"/>
<path d="M17.1627 78.5569H92.8373C94.6694 78.5569 96.1549 77.274 96.1549 75.6917C96.1549 74.1094 94.6694 72.8265 92.8373 72.8265H17.1627C15.3303 72.8265 13.8451 74.1094 13.8451 75.6917C13.8451 77.274 15.3303 78.5569 17.1627 78.5569Z" fill="#4A4A4A"/>
</svg>
