<svg width="113" height="87" viewBox="0 0 113 87" fill="none" xmlns="http://www.w3.org/2000/svg">
<path d="M112.878 48.1676C112.606 47.0862 111.91 46.1712 110.919 45.5909L101.848 40.2784C101.848 40.2784 98.8176 26.066 98.7277 25.9299C98.2277 24.1691 96.7901 22.7005 94.8189 22.1972L88.3182 20.5384C87.8525 20.4195 87.3734 20.3591 86.8945 20.3591C86.245 20.3591 85.6169 20.4702 85.0303 20.6722C84.827 20.7472 84.6959 20.801 84.5382 20.8809L67.2195 29.5811C67.195 29.5937 67.1708 29.6066 67.147 29.6205C65.9483 30.3164 65.1915 31.4438 64.9517 32.6691C64.9374 32.7182 64.9251 32.7679 64.9167 32.8186L62.7927 45.5483C62.3797 48.0204 64.1443 50.3532 66.7343 50.75L66.8635 50.7692C67.1124 50.8072 67.3659 50.8266 67.6169 50.8266C67.6169 50.8266 67.6169 50.8266 67.6172 50.8266C69.9586 50.8266 71.9266 49.2187 72.2965 47.0031L74.0418 36.5353L78.8127 34.1209L70.0998 63.5581L57.4669 66.4069C54.7888 66.842 52.9615 69.2683 53.3863 71.8392L53.4098 71.9829C53.7941 74.3099 55.8581 75.9989 58.3176 75.9989C58.5779 75.9989 58.841 75.9595 59.0993 75.9203C59.1339 75.9153 59.0652 75.928 59.0993 75.9203C59.0993 75.9203 74.4513 72.5565 75.8893 72.0716C77.1878 71.6138 78.2491 70.6497 78.7828 69.3622C78.7995 69.3219 78.7703 69.4037 78.7828 69.3622L81.5775 60.1526L94.9892 64.5769L97.7674 79.59C98.179 81.8812 100.238 83.5443 102.664 83.5443C102.947 83.5443 103.232 83.5211 103.507 83.4756L103.658 83.4513C106.36 83.0065 108.18 80.5403 107.715 77.9471C107.715 77.9471 104.581 60.3098 104.266 59.4572C103.827 58.138 102.797 57.0108 101.349 56.4658C101.337 56.4611 101.361 56.4704 101.349 56.4658L91.9004 53.1946L94.1891 44.9826C94.5654 45.5893 95.0977 46.096 95.7291 46.4516C95.7401 46.4586 95.7491 46.4678 95.7606 46.4746L106.379 52.6922C107.063 53.093 107.847 53.3049 108.646 53.3049C110.174 53.3049 111.562 52.5609 112.359 51.3148C112.965 50.3661 113.149 49.2486 112.878 48.1676Z" fill="#4A4A4A"/>
<path d="M52.0372 73.4117C51.9561 73.2255 51.8325 73.059 51.6756 72.9244L47.2909 69.1682L49.5925 59.8542C56.0017 59.8542 58.1249 54.8074 58.1936 54.632C58.4671 53.9332 58.0965 53.1542 57.3663 52.8927L52.6164 51.1913C52.2222 49.7309 51.0355 48.5799 49.5327 48.1727L49.2184 45.4915C49.1558 44.9576 48.7687 44.5099 48.2324 44.3511C47.6958 44.1923 47.1122 44.3529 46.7459 44.7598L45.8862 45.7145L45.2095 43.6467C45.0264 43.0877 44.4877 42.7049 43.8754 42.6995C43.871 42.6995 43.8665 42.6995 43.862 42.6995C43.2551 42.6995 42.7155 43.0708 42.5231 43.6226L37.322 58.5203L17.282 60.3705C14.2031 60.6915 11.1306 59.572 9.06354 57.3754C8.5416 56.8211 7.6488 56.7763 7.06944 57.2758C6.49009 57.7751 6.44326 58.6295 6.9652 59.1842C9.04142 61.3905 11.9012 62.7563 14.9314 63.0626C13.5132 64.1251 12.1832 65.7247 11.2054 68.122L6.18394 68.4019C5.79449 68.4237 5.43186 68.5985 5.18195 68.8854L0.327792 74.4519C0.0809429 74.735 -0.0343633 75.1025 0.00893536 75.4691C0.052234 75.8358 0.249902 76.1693 0.556758 76.3929L1.59734 77.1509C1.85219 77.3365 2.15293 77.427 2.45178 77.427C2.84876 77.427 3.24245 77.2674 3.5206 76.9593L7.28052 72.7956L13.5167 74.0693L10.595 76.6683C10.2907 76.939 10.1265 77.3241 10.1458 77.7214L10.5126 85.203C10.5446 85.857 11.0619 86.3948 11.7403 86.4795L13.5694 86.7078C13.6304 86.7155 13.6913 86.7193 13.752 86.7193C14.0937 86.7193 14.4265 86.6006 14.6858 86.3817C14.9912 86.1239 15.1656 85.7525 15.1639 85.3627L15.1411 79.9547L24.7111 75.3196C24.7532 75.2991 24.7944 75.2768 24.8341 75.2523C26.307 74.351 27.265 73.225 27.8818 72.0594C31.5275 72.816 36.565 73.795 40.5214 74.3112L39.7727 78.7406L33.6087 83.6838C33.0141 84.1606 32.9329 85.0073 33.427 85.5798L34.1622 86.4317C34.4384 86.7519 34.8415 86.9226 35.2515 86.9226C35.488 86.9226 35.7268 86.8659 35.9447 86.7483L43.4872 82.6742C43.83 82.4889 44.0764 82.175 44.1672 81.8083L45.7709 75.3194L48.2152 77.1428L52.0351 83.8739C52.2822 84.3094 52.7583 84.5803 53.2757 84.5803H54.7792C55.2512 84.5803 55.692 84.3547 55.9539 83.9788C56.2158 83.603 56.264 83.1267 56.0826 82.7096L52.0372 73.4117Z" fill="#4A4A4A"/>
<path d="M95.1642 20.2474C100.997 20.2474 105.743 15.706 105.743 10.1237C105.743 4.54141 100.997 0 95.1642 0C89.3313 0 84.5856 4.54141 84.5856 10.1237C84.5856 15.706 89.3313 20.2474 95.1642 20.2474Z" fill="#4A4A4A"/>
</svg>
