<?xml version="1.0" encoding="iso-8859-1"?>
<!-- Generator: Adobe Illustrator 18.0.0, SVG Export Plug-In . SVG Version: 6.00 Build 0)  -->
<!DOCTYPE svg PUBLIC "-//W3C//DTD SVG 1.1//EN" "http://www.w3.org/Graphics/SVG/1.1/DTD/svg11.dtd">
<svg version="1.1" id="Capa_1" xmlns="http://www.w3.org/2000/svg" xmlns:xlink="http://www.w3.org/1999/xlink" x="0px" y="0px"
	 viewBox="0 0 359.212 359.212" style="enable-background:new 0 0 359.212 359.212;" xml:space="preserve">
<path d="M341.425,128.616L185.274,2.008c-3.304-2.678-8.032-2.678-11.336,0L17.787,128.616c-2.961,2.4-4.088,6.405-2.815,9.998
	c1.274,3.593,4.671,5.993,8.483,5.993h26.587v170.721H32.014c-4.971,0-9,4.029-9,9v25.885c0,4.971,4.029,9,9,9h295.184
	c4.971,0,9-4.029,9-9v-25.885c0-4.971-4.029-9-9-9h-17.464V144.607h26.023c3.811,0,7.209-2.4,8.483-5.993
	C345.514,135.021,344.386,131.016,341.425,128.616z M179.887,178.097c27.011,0,48.986,23.499,48.986,52.383v84.848h-97.972v-84.85
	C130.902,201.595,152.877,178.097,179.887,178.097z M41.014,333.328h67.562v7.885H41.014V333.328z M126.576,341.212v-7.885h106.06
	v7.885H126.576z M318.198,341.212h-67.562v-7.885h67.562V341.212z"/>
<g>
</g>
<g>
</g>
<g>
</g>
<g>
</g>
<g>
</g>
<g>
</g>
<g>
</g>
<g>
</g>
<g>
</g>
<g>
</g>
<g>
</g>
<g>
</g>
<g>
</g>
<g>
</g>
<g>
</g>
</svg>
