<svg width="284" height="313" viewBox="0 0 284 313" fill="none" xmlns="http://www.w3.org/2000/svg">
<path d="M210.5 178C208.824 178 208.5 184.309 207 189C206.283 191.241 210.287 195 212.203 195M210.5 178C211.458 178 211.915 180.884 216.5 187C218.529 189.707 214.119 195 212.203 195M210.5 178L212.203 195" stroke="#EEA7EF" stroke-width="20"/>
<path d="M94.5422 157.206C94.5422 167.399 116.168 182.936 134.47 192.031M260.641 139.595C260.641 145.705 259.348 157.643 252.655 166.76M134.47 192.031C143.402 196.47 153.161 199.253 163.218 198.833C201.548 197.232 203.145 170.014 207.936 162.009C212.728 154.004 212.728 182.823 235.087 178.02C243.225 176.271 248.825 171.978 252.655 166.76M134.47 192.031C116.902 223.117 89.3303 285.018 100.931 301.299C114.62 320.511 135.738 293.626 134.47 280.485C129.678 230.854 105.722 242.899 134.47 192.031ZM252.655 166.76C269.265 202.665 270.223 247.931 268.626 266.076H252.655H269.425M283 266.076H269.425M269.425 266.076C275.281 269.812 278.209 272.99 278.209 280.485C278.209 293.294 257.446 294.895 252.655 280.485M193.562 188.032C195.159 197.638 208.256 209.08 215.922 205.237C225.504 200.434 227.101 182.823 225.915 178.02M105.722 27.5231C115.305 16.3159 91.3479 19.518 84.9595 19.518C76.974 19.518 6.70161 38.7303 13.09 43.5334C19.4784 48.3364 17.8813 72.3518 13.09 94.7662C8.29877 117.181 13.2486 134.922 6.70174 142.797C-1.2839 152.403 21.0756 142.797 27.464 142.797C33.8524 142.797 59.4061 128.388 72.1828 109.175C84.9595 89.9631 65.3585 72.0905 72.1828 61.1447C80.1683 48.3364 102.528 27.5231 105.722 27.5231ZM171.203 19.518C178.656 14.1812 195.16 3.82789 201.548 5.10871C209.533 6.70974 257.446 11.5128 257.446 19.518C257.446 27.5231 251.058 33.9272 257.446 51.5385C263.835 69.1498 257.446 77.1549 268.626 94.7662C273.244 102.04 252.655 109.175 231.893 61.1447C228.166 49.9375 217.519 27.5231 204.742 27.5231C188.771 27.5231 168.009 27.5231 171.203 19.518Z" stroke="#282828" stroke-width="10"/>
<path d="M141 94.5C141 105.27 136.734 114 127.222 114C117.711 114 110 105.27 110 94.5C110 83.7304 117.711 75 127.222 75C136.734 75 141 83.7304 141 94.5Z" fill="#282828"/>
<path d="M190.407 85.7127C188.677 75.9114 190.771 67.3501 198.568 65.977C206.364 64.6039 214.086 71.4362 215.817 81.2375C217.547 91.0388 212.629 100.097 204.833 101.471C197.037 102.844 192.138 95.514 190.407 85.7127Z" fill="#282828"/>
<path d="M206.375 116.146C189.148 110.813 179.015 116.501 171.921 121.478C169.557 124.678 155.63 133.713 159.761 138.544C168.881 149.209 177.444 135.824 180.028 138.544C188.135 147.076 189.906 146.902 197 144.769C202.675 143.062 203.335 137.121 203.335 134.277C213.807 131.078 224.145 121.646 206.375 116.146Z" stroke="#282828" stroke-width="10"/>
<ellipse cx="198" cy="81" rx="4" ry="6" fill="#C4C4C4"/>
<ellipse cx="119" cy="90" rx="4" ry="6" fill="#C4C4C4"/>
</svg>
