<svg width="111" height="179" viewBox="0 0 111 179" fill="none" xmlns="http://www.w3.org/2000/svg">
<path d="M55.3161 179C60.7822 179 65.2199 174.416 65.2199 168.753C65.2199 163.097 65.2199 158.513 65.2199 158.513C92.2594 155.792 110.159 140.109 110.159 114.594V114.177C110.159 88.2456 94.9246 76.3275 64.6483 68.5927V44.3356C69.0071 45.5053 73.5209 47.1629 77.9323 49.313C85.0318 52.7689 93.6595 50.6028 97.9698 42.8642C102.284 35.1301 99.9534 24.2662 91.9618 20.3262C84.0041 16.4075 75.2705 13.7079 65.5964 12.5466V6.27101C65.5964 2.81135 61.1657 0 55.696 0C50.2264 0 45.7922 2.67075 45.7922 5.95256C45.7922 9.24729 45.7922 11.9135 45.7922 11.9135C16.6522 14.2164 0.277259 31.3634 0.277259 56.0385V56.4604C0.277259 82.388 15.8916 93.8964 46.5521 101.627V126.724C39.1965 125.422 31.9953 122.739 24.666 118.629C16.8585 114.255 7.29371 115.802 2.56186 123.482C-2.17345 131.158 -0.261192 142.064 7.61 146.305C19.1742 152.543 32.2437 156.619 45.408 158.099V168.553C45.4122 174.321 49.8464 179 55.3161 179ZM64.4524 104.975C74.3604 108.109 77.2132 111.251 77.2132 116.893V117.315C77.2132 123.379 73.2157 126.93 64.4524 127.981V104.975ZM33.7912 53.3184V52.9011C33.7912 47.4654 37.4123 43.2814 46.7403 42.4469V65.0343C36.4606 61.8961 33.7912 58.7541 33.7912 53.3184Z" fill="#010002"/>
</svg>
