<svg width="63" height="103" viewBox="0 0 63 103" fill="none" xmlns="http://www.w3.org/2000/svg">
<path d="M31.6353 103C34.7614 103 37.2993 100.362 37.2993 97.1034C37.2993 93.8492 37.2993 91.2112 37.2993 91.2112C52.7632 89.646 63 80.6211 63 65.9397V65.6996C63 50.7782 54.2875 43.9203 36.9724 39.4696V25.5115C39.4652 26.1846 42.0467 27.1384 44.5695 28.3757C48.6298 30.3642 53.5639 29.1178 56.029 24.6649C58.4961 20.2145 57.1634 13.9633 52.593 11.6961C48.042 9.4412 43.0473 7.88779 37.5146 7.21954V3.60846C37.5146 1.6177 34.9807 0 31.8526 0C28.7245 0 26.1886 1.5368 26.1886 3.42521C26.1886 5.32106 26.1886 6.85524 26.1886 6.85524C9.52341 8.18036 0.158565 18.0471 0.158565 32.2456V32.4884C0.158565 47.4076 9.08841 54.0298 26.6232 58.4779V72.9192C22.4165 72.17 18.2981 70.6262 14.1065 68.2616C9.64136 65.7447 4.17128 66.6347 1.46513 71.0539C-1.243 75.471 -0.149376 81.7464 4.35216 84.1867C10.9657 87.7763 18.4402 90.1213 25.9689 90.9733V96.9888C25.9713 100.307 28.5072 103 31.6353 103ZM36.8604 60.4048C42.5268 62.2079 44.1583 64.0159 44.1583 67.2627V67.5054C44.1583 70.9949 41.8721 73.0381 36.8604 73.6425V60.4048ZM19.3252 30.6804V30.4403C19.3252 27.3125 21.3961 24.905 26.7308 24.4248V37.4219C20.8519 35.6162 19.3252 33.8082 19.3252 30.6804Z" fill="#4A4A4A"/>
</svg>
