<svg width="743" height="379" viewBox="0 0 743 379" fill="none" xmlns="http://www.w3.org/2000/svg">
<path d="M160.957 304.664C160.957 313.56 157.533 322.264 150.685 330.776C143.837 339.288 135.549 344.984 125.821 347.864C123.005 347.864 120.125 347.736 117.181 347.48C114.237 347.288 111.677 347 109.501 346.616C108.477 337.592 107.709 329.048 107.197 320.984C106.685 312.856 106.429 305.272 106.429 298.232C106.429 295.864 106.429 293.464 106.429 291.032C106.493 288.6 106.589 286.168 106.717 283.736C111.005 281.752 114.973 280.344 118.621 279.512C122.269 278.616 126.077 278.168 130.045 278.168C140.093 278.168 147.741 280.44 152.989 284.984C158.301 289.528 160.957 296.088 160.957 304.664ZM126.877 289.592C126.365 295.672 125.949 301.976 125.629 308.504C125.373 314.968 125.245 321.688 125.245 328.664C125.245 330.072 125.245 331.16 125.245 331.928C125.245 332.632 125.277 333.272 125.341 333.848C130.461 331.16 134.397 327.32 137.149 322.328C139.901 317.272 141.277 311.448 141.277 304.856C141.277 300.184 140.093 296.472 137.725 293.72C135.421 290.904 132.317 289.496 128.413 289.496C127.965 289.496 127.645 289.496 127.453 289.496C127.261 289.496 127.069 289.528 126.877 289.592ZM164.791 324.632C164.791 315.608 167.383 308.248 172.567 302.552C177.815 296.792 184.599 293.912 192.919 293.912C199.191 293.912 204.055 295.672 207.511 299.192C210.967 302.712 212.695 307.704 212.695 314.168C212.695 318.2 212.055 322.296 210.775 326.456C209.559 330.616 207.831 334.232 205.591 337.304C203.031 340.824 199.959 343.48 196.375 345.272C192.855 347.064 188.855 347.96 184.375 347.96C178.167 347.96 173.335 345.88 169.879 341.72C166.487 337.496 164.791 331.8 164.791 324.632ZM193.591 319.448C193.591 314.456 193.207 310.808 192.439 308.504C191.671 306.136 190.455 304.952 188.791 304.952C187.255 304.952 185.975 306.52 184.951 309.656C183.991 312.792 183.511 316.888 183.511 321.944C183.511 326.104 183.959 329.656 184.855 332.6C185.751 335.48 186.967 336.92 188.503 336.92C190.103 336.92 191.351 335.32 192.247 332.12C193.143 328.856 193.591 324.632 193.591 319.448ZM237.147 319.64C237.147 324.312 237.883 328.056 239.355 330.872C240.827 333.624 242.683 335 244.923 335C245.371 335 245.819 334.872 246.267 334.616C246.715 334.296 247.131 333.88 247.515 333.368V332.6C247.515 328.952 247.259 324.76 246.747 320.024C246.299 315.288 245.691 310.744 244.923 306.392C244.731 306.328 244.507 306.296 244.251 306.296C244.059 306.296 243.739 306.296 243.291 306.296C241.179 306.296 239.611 307.384 238.587 309.56C237.627 311.736 237.147 315.096 237.147 319.64ZM266.715 330.776C266.715 343.768 264.347 353.656 259.611 360.44C254.939 367.288 248.251 370.712 239.547 370.712C233.531 370.712 228.827 369.208 225.435 366.2C222.107 363.256 220.443 359.64 220.443 355.352C222.427 353.816 224.795 352.504 227.547 351.416C230.363 350.392 233.211 349.688 236.091 349.304C236.667 353.272 237.339 356.024 238.107 357.56C238.875 359.16 239.899 359.96 241.179 359.96C242.971 359.96 244.379 358.584 245.403 355.832C246.427 353.144 247.067 348.888 247.323 343.064C246.107 344.28 244.795 345.176 243.387 345.752C241.979 346.328 240.411 346.616 238.683 346.616C232.603 346.616 227.707 344.504 223.995 340.28C220.283 336.056 218.427 330.52 218.427 323.672C218.427 314.264 220.763 307.16 225.435 302.36C230.171 297.496 237.147 295.064 246.363 295.064C248.731 295.064 251.451 295.288 254.523 295.736C257.595 296.184 260.475 296.792 263.163 297.56C264.059 300.632 264.859 305.528 265.563 312.248C266.331 318.904 266.715 325.08 266.715 330.776ZM291.616 319.64C291.616 324.312 292.352 328.056 293.824 330.872C295.296 333.624 297.152 335 299.392 335C299.84 335 300.288 334.872 300.736 334.616C301.184 334.296 301.6 333.88 301.984 333.368V332.6C301.984 328.952 301.728 324.76 301.216 320.024C300.768 315.288 300.16 310.744 299.392 306.392C299.2 306.328 298.976 306.296 298.72 306.296C298.528 306.296 298.208 306.296 297.76 306.296C295.648 306.296 294.08 307.384 293.056 309.56C292.096 311.736 291.616 315.096 291.616 319.64ZM321.184 330.776C321.184 343.768 318.816 353.656 314.08 360.44C309.408 367.288 302.72 370.712 294.016 370.712C288 370.712 283.296 369.208 279.904 366.2C276.576 363.256 274.912 359.64 274.912 355.352C276.896 353.816 279.264 352.504 282.016 351.416C284.832 350.392 287.68 349.688 290.56 349.304C291.136 353.272 291.808 356.024 292.576 357.56C293.344 359.16 294.368 359.96 295.648 359.96C297.44 359.96 298.848 358.584 299.872 355.832C300.896 353.144 301.536 348.888 301.792 343.064C300.576 344.28 299.264 345.176 297.856 345.752C296.448 346.328 294.88 346.616 293.152 346.616C287.072 346.616 282.176 344.504 278.464 340.28C274.752 336.056 272.896 330.52 272.896 323.672C272.896 314.264 275.232 307.16 279.904 302.36C284.64 297.496 291.616 295.064 300.832 295.064C303.2 295.064 305.92 295.288 308.992 295.736C312.064 296.184 314.944 296.792 317.632 297.56C318.528 300.632 319.328 305.528 320.032 312.248C320.8 318.904 321.184 325.08 321.184 330.776ZM344.91 274.424C346.83 274.424 348.622 274.584 350.286 274.904C351.95 275.224 353.358 275.672 354.51 276.248C353.934 277.592 353.294 279.576 352.59 282.2C351.886 284.76 351.374 287.032 351.054 289.016C348.878 289.4 346.446 289.688 343.758 289.88C341.07 290.008 338.03 290.04 334.638 289.976C334.19 288.568 333.838 287.16 333.582 285.752C333.39 284.344 333.294 282.968 333.294 281.624C333.294 280.6 333.326 279.704 333.39 278.936C333.518 278.168 333.678 277.464 333.87 276.824C335.342 275.992 336.974 275.384 338.766 275C340.622 274.616 342.67 274.424 344.91 274.424ZM331.566 298.616C333.294 297.592 335.31 296.824 337.614 296.312C339.918 295.8 342.414 295.544 345.102 295.544C346.382 295.544 347.63 295.608 348.846 295.736C350.126 295.864 351.342 296.024 352.494 296.216C351.086 300.376 349.838 307 348.75 316.088C347.726 325.176 347.022 335.128 346.638 345.944C345.294 346.648 343.566 347.192 341.454 347.576C339.406 348.024 337.262 348.248 335.022 348.248C334.062 348.248 333.23 348.216 332.526 348.152C331.822 348.088 331.214 347.992 330.702 347.864C329.742 338.712 329.326 329.944 329.454 321.56C329.582 313.112 330.286 305.464 331.566 298.616ZM374.904 313.784C375.672 313.976 376.408 314.136 377.112 314.264C377.88 314.328 378.52 314.36 379.032 314.36C379.544 314.36 380.12 314.36 380.76 314.36C381.464 314.296 381.944 314.232 382.2 314.168C382.584 312.632 382.872 311.192 383.064 309.848C383.32 308.504 383.448 307.288 383.448 306.2C383.448 304.856 383.256 303.864 382.872 303.224C382.552 302.584 382.04 302.264 381.336 302.264C380.056 302.264 378.84 303.32 377.688 305.432C376.536 307.48 375.608 310.264 374.904 313.784ZM386.52 328.568C388.952 329.016 391.416 329.912 393.912 331.256C396.472 332.536 398.552 334.008 400.152 335.672C399.64 337.336 398.456 339.128 396.6 341.048C394.744 342.968 392.536 344.568 389.976 345.848C387.928 346.872 385.688 347.64 383.256 348.152C380.888 348.728 378.392 349.016 375.768 349.016C369.112 349.016 363.896 347.096 360.12 343.256C356.408 339.352 354.552 334.072 354.552 327.416C354.552 323.256 355.192 319.192 356.472 315.224C357.816 311.192 359.704 307.544 362.136 304.28C364.888 300.632 368.056 297.784 371.64 295.736C375.224 293.688 378.904 292.664 382.68 292.664C388.056 292.664 392.344 294.04 395.544 296.792C398.744 299.48 400.344 303.096 400.344 307.64C400.344 309.688 400.12 311.96 399.672 314.456C399.288 316.888 398.776 319 398.136 320.792C396.152 321.752 393.688 322.488 390.744 323C387.864 323.448 384.408 323.672 380.376 323.672C379.224 323.672 378.072 323.608 376.92 323.48C375.832 323.352 374.744 323.192 373.656 323C373.592 323.384 373.56 323.832 373.56 324.344C373.56 324.792 373.56 325.496 373.56 326.456C373.56 330.296 374.04 333.24 375 335.288C376.024 337.336 377.464 338.36 379.32 338.36C380.536 338.36 381.848 337.368 383.256 335.384C384.664 333.4 385.752 331.128 386.52 328.568ZM483.926 304.664C483.926 313.56 480.502 322.264 473.654 330.776C466.806 339.288 458.518 344.984 448.79 347.864C445.974 347.864 443.094 347.736 440.15 347.48C437.206 347.288 434.646 347 432.47 346.616C431.446 337.592 430.678 329.048 430.166 320.984C429.654 312.856 429.398 305.272 429.398 298.232C429.398 295.864 429.398 293.464 429.398 291.032C429.462 288.6 429.558 286.168 429.686 283.736C433.974 281.752 437.942 280.344 441.59 279.512C445.238 278.616 449.046 278.168 453.014 278.168C463.062 278.168 470.71 280.44 475.958 284.984C481.27 289.528 483.926 296.088 483.926 304.664ZM449.846 289.592C449.334 295.672 448.918 301.976 448.598 308.504C448.342 314.968 448.214 321.688 448.214 328.664C448.214 330.072 448.214 331.16 448.214 331.928C448.214 332.632 448.246 333.272 448.31 333.848C453.43 331.16 457.366 327.32 460.118 322.328C462.87 317.272 464.246 311.448 464.246 304.856C464.246 300.184 463.062 296.472 460.694 293.72C458.39 290.904 455.286 289.496 451.382 289.496C450.934 289.496 450.614 289.496 450.422 289.496C450.23 289.496 450.038 289.528 449.846 289.592ZM533.489 312.632C533.489 316.664 532.945 322.168 531.857 329.144C530.769 336.056 529.361 343.192 527.633 350.552C525.393 350.552 522.993 350.392 520.433 350.072C517.873 349.816 515.377 349.432 512.945 348.92C513.073 347.832 513.169 347 513.233 346.424C513.297 345.848 513.361 345.336 513.425 344.888C512.081 345.464 510.609 345.912 509.009 346.232C507.409 346.552 505.681 346.712 503.825 346.712C498.513 346.712 494.257 345.4 491.057 342.776C487.857 340.088 486.257 336.504 486.257 332.024C486.257 327.48 488.081 324.088 491.729 321.848C495.441 319.544 501.009 318.392 508.433 318.392C510.865 318.392 512.497 318.392 513.329 318.392C514.161 318.392 514.833 318.424 515.345 318.488C515.281 312.472 514.897 308.376 514.193 306.2C513.489 304.024 512.337 302.936 510.737 302.936C509.201 302.936 507.857 303.992 506.705 306.104C505.617 308.152 505.041 310.776 504.977 313.976C500.881 313.976 497.457 313.208 494.705 311.672C492.017 310.136 490.161 307.928 489.137 305.048C490.353 301.72 493.105 298.872 497.393 296.504C501.681 294.136 506.641 292.952 512.273 292.952C519.249 292.952 524.529 294.616 528.113 297.944C531.697 301.272 533.489 306.168 533.489 312.632ZM505.361 333.368C505.361 334.84 505.745 335.992 506.513 336.824C507.281 337.592 508.401 337.976 509.873 337.976C510.769 337.976 511.569 337.88 512.273 337.688C512.977 337.496 513.681 337.208 514.385 336.824C514.641 334.584 514.801 332.664 514.865 331.064C514.993 329.4 515.089 327.896 515.153 326.552C511.825 326.744 509.361 327.384 507.761 328.472C506.161 329.56 505.361 331.192 505.361 333.368ZM588.76 330.776C588.76 343.768 586.392 353.656 581.656 360.44C576.984 367.288 570.296 370.712 561.592 370.712C555.576 370.712 550.872 369.208 547.48 366.2C544.152 363.256 542.488 359.64 542.488 355.352C544.472 353.816 546.84 352.504 549.592 351.416C552.408 350.392 555.256 349.688 558.136 349.304C558.712 353.272 559.384 356.024 560.152 357.56C560.92 359.16 561.944 359.96 563.224 359.96C565.272 359.96 566.776 358.264 567.736 354.872C568.76 351.544 569.368 345.944 569.56 338.072C567.896 340.568 566.008 342.424 563.896 343.64C561.848 344.856 559.512 345.464 556.888 345.464C552.024 345.464 547.96 343.256 544.696 338.84C541.496 334.36 539.896 328.728 539.896 321.944C539.896 317.656 540.184 313.592 540.76 309.752C541.336 305.848 542.392 301.016 543.928 295.256C547.192 295.256 550.264 295.416 553.144 295.736C556.088 295.992 559.224 296.44 562.552 297.08C561.272 302.008 560.376 306.232 559.864 309.752C559.352 313.272 559.096 316.984 559.096 320.888C559.096 324.088 559.512 326.744 560.344 328.856C561.176 330.904 562.296 331.928 563.704 331.928C564.856 331.928 565.88 331.512 566.776 330.68C567.736 329.784 568.6 328.44 569.368 326.648C569.112 321.848 568.6 316.824 567.832 311.576C567.064 306.264 566.328 302.456 565.624 300.152C567.864 299.32 570.744 298.68 574.264 298.232C577.784 297.784 581.432 297.56 585.208 297.56C586.104 300.632 586.904 305.528 587.608 312.248C588.376 318.904 588.76 325.08 588.76 330.776ZM622.456 314.744C628.216 318.2 632.056 321.304 633.976 324.056C635.96 326.808 636.952 329.88 636.952 333.272C636.952 338.456 634.712 342.776 630.232 346.232C625.752 349.624 620.28 351.32 613.816 351.32C608.312 351.32 603.704 349.656 599.992 346.328C596.28 343 594.424 339.064 594.424 334.52C595.896 333.816 597.848 333.24 600.28 332.792C602.712 332.28 604.888 332.024 606.808 332.024C606.808 334.84 607.384 337.112 608.536 338.84C609.752 340.568 611.448 341.432 613.624 341.432C615.224 341.432 616.44 341.08 617.272 340.376C618.104 339.672 618.52 338.648 618.52 337.304C618.52 335.96 617.976 334.648 616.888 333.368C615.864 332.088 613.528 330.328 609.88 328.088C604.44 324.696 600.824 321.72 599.032 319.16C597.24 316.536 596.344 313.592 596.344 310.328C596.344 305.208 598.296 300.984 602.2 297.656C606.168 294.264 611.224 292.568 617.368 292.568C623.448 292.568 628.376 293.912 632.152 296.6C635.992 299.288 638.424 303.064 639.448 307.928C637.592 309.144 635.48 310.104 633.112 310.808C630.744 311.448 627.64 311.896 623.8 312.152C623.352 309.144 622.648 306.968 621.688 305.624C620.792 304.216 619.544 303.512 617.944 303.512C616.856 303.512 615.992 303.832 615.352 304.472C614.776 305.112 614.488 305.976 614.488 307.064C614.488 308.088 614.968 309.144 615.928 310.232C616.888 311.256 619.064 312.76 622.456 314.744Z" fill="#FBFBFB"/>
<path d="M409.626 140.317C408.3 140.317 408.043 145.251 406.856 148.921C406.289 150.674 409.458 153.614 410.974 153.614M409.626 140.317C410.384 140.317 410.746 142.572 414.374 147.356C415.98 149.474 412.49 153.614 410.974 153.614M409.626 140.317L410.974 153.614" stroke="#EEA7EF" stroke-width="20"/>
<path d="M317.861 124.052C317.861 132.025 334.975 144.178 349.458 151.292M449.305 110.277C449.305 115.056 448.283 124.394 442.986 131.525M349.458 151.292C356.526 154.764 364.249 156.941 372.208 156.612C402.542 155.36 403.805 134.071 407.597 127.809C411.389 121.548 411.389 144.089 429.083 140.332C435.524 138.965 439.955 135.607 442.986 131.525M349.458 151.292C335.555 175.606 313.736 224.024 322.916 236.758C333.75 251.786 350.462 230.757 349.458 220.479C345.666 181.658 326.708 191.079 349.458 151.292ZM442.986 131.525C456.13 159.609 456.889 195.015 455.625 209.208H442.986H456.257M467 209.208H456.257M456.257 209.208C460.891 212.13 463.208 214.616 463.208 220.479C463.208 230.497 446.778 231.749 442.986 220.479M396.222 148.163C397.486 155.677 407.85 164.627 413.917 161.621C421.5 157.864 422.764 144.089 421.825 140.332M326.708 22.6171C334.291 13.8511 315.333 16.3556 310.277 16.3556C303.958 16.3556 248.347 31.3831 253.402 35.14C258.458 38.8968 257.194 57.6811 253.402 75.2132C249.611 92.7452 253.528 106.622 248.347 112.782C242.027 120.296 259.722 112.782 264.777 112.782C269.833 112.782 290.055 101.511 300.166 86.4838C310.277 71.4563 294.766 57.4767 300.166 48.9151C306.486 38.8968 324.18 22.6171 326.708 22.6171ZM378.528 16.3556C384.426 12.1813 397.486 4.0832 402.542 5.08503C408.861 6.33732 446.778 10.0942 446.778 16.3556C446.778 22.6171 441.722 27.6262 446.778 41.4014C451.833 55.1766 446.778 61.438 455.625 75.2132C459.279 80.9027 442.986 86.4838 426.555 48.9151C423.606 40.1491 415.18 22.6171 405.069 22.6171C392.43 22.6171 376 22.6171 378.528 16.3556Z" stroke="#4A4A4A" stroke-width="10"/>
<path d="M354.626 75.0049C354.626 83.4286 351.25 90.2574 343.723 90.2574C336.196 90.2574 330.094 83.4286 330.094 75.0049C330.094 66.5812 336.196 59.7524 343.723 59.7524C351.25 59.7524 354.626 66.5812 354.626 75.0049Z" fill="#4A4A4A"/>
<path d="M393.725 68.1317C392.356 60.4654 394.013 53.7689 400.183 52.6948C406.353 51.6208 412.464 56.965 413.833 64.6313C415.203 72.2977 411.311 79.3831 405.141 80.4571C398.972 81.5311 395.094 75.7981 393.725 68.1317Z" fill="#4A4A4A"/>
<path d="M406.362 91.9357C392.729 87.7644 384.709 92.2138 379.096 96.1069C377.225 98.6097 366.204 105.677 369.473 109.455C376.69 117.797 383.467 107.328 385.511 109.455C391.927 116.129 393.329 115.993 398.943 114.324C403.433 112.989 403.956 108.343 403.956 106.118C412.243 103.615 420.424 96.2382 406.362 91.9357Z" stroke="#4A4A4A" stroke-width="10"/>
<ellipse cx="399.734" cy="64.4455" rx="3.16547" ry="4.69307" fill="#C4C4C4"/>
<ellipse cx="337.216" cy="71.4852" rx="3.16547" ry="4.69307" fill="#C4C4C4"/>
</svg>
