<svg width="1021" height="214" viewBox="0 0 1021 214" fill="none" xmlns="http://www.w3.org/2000/svg">
<path d="M285.186 94.496C285.186 107.84 280.05 120.896 269.778 133.664C259.506 146.432 247.074 154.976 232.482 159.296C228.258 159.296 223.938 159.104 219.522 158.72C215.106 158.432 211.266 158 208.002 157.424C206.466 143.888 205.314 131.072 204.546 118.976C203.778 106.784 203.394 95.408 203.394 84.848C203.394 81.296 203.394 77.696 203.394 74.048C203.49 70.4 203.634 66.752 203.826 63.104C210.258 60.128 216.21 58.016 221.682 56.768C227.154 55.424 232.866 54.752 238.818 54.752C253.89 54.752 265.362 58.16 273.234 64.976C281.202 71.792 285.186 81.632 285.186 94.496ZM234.066 71.888C233.298 81.008 232.674 90.464 232.194 100.256C231.81 109.952 231.618 120.032 231.618 130.496C231.618 132.608 231.618 134.24 231.618 135.392C231.618 136.448 231.666 137.408 231.762 138.272C239.442 134.24 245.346 128.48 249.474 120.992C253.602 113.408 255.666 104.672 255.666 94.784C255.666 87.776 253.89 82.208 250.338 78.08C246.882 73.856 242.226 71.744 236.37 71.744C235.698 71.744 235.218 71.744 234.93 71.744C234.642 71.744 234.354 71.792 234.066 71.888ZM290.936 124.448C290.936 110.912 294.824 99.872 302.6 91.328C310.472 82.688 320.648 78.368 333.128 78.368C342.536 78.368 349.832 81.008 355.016 86.288C360.2 91.568 362.792 99.056 362.792 108.752C362.792 114.8 361.832 120.944 359.912 127.184C358.088 133.424 355.496 138.848 352.136 143.456C348.296 148.736 343.688 152.72 338.312 155.408C333.032 158.096 327.032 159.44 320.312 159.44C311 159.44 303.752 156.32 298.568 150.08C293.48 143.744 290.936 135.2 290.936 124.448ZM334.136 116.672C334.136 109.184 333.56 103.712 332.408 100.256C331.256 96.704 329.432 94.928 326.936 94.928C324.632 94.928 322.712 97.28 321.176 101.984C319.736 106.688 319.016 112.832 319.016 120.416C319.016 126.656 319.688 131.984 321.032 136.4C322.376 140.72 324.2 142.88 326.504 142.88C328.904 142.88 330.776 140.48 332.12 135.68C333.464 130.784 334.136 124.448 334.136 116.672ZM399.47 116.96C399.47 123.968 400.574 129.584 402.782 133.808C404.99 137.936 407.774 140 411.134 140C411.806 140 412.478 139.808 413.15 139.424C413.822 138.944 414.446 138.32 415.022 137.552V136.4C415.022 130.928 414.638 124.64 413.87 117.536C413.198 110.432 412.286 103.616 411.134 97.088C410.846 96.992 410.51 96.944 410.126 96.944C409.838 96.944 409.358 96.944 408.686 96.944C405.518 96.944 403.166 98.576 401.63 101.84C400.19 105.104 399.47 110.144 399.47 116.96ZM443.822 133.664C443.822 153.152 440.27 167.984 433.166 178.16C426.158 188.432 416.126 193.568 403.07 193.568C394.046 193.568 386.99 191.312 381.902 186.8C376.91 182.384 374.414 176.96 374.414 170.528C377.39 168.224 380.942 166.256 385.07 164.624C389.294 163.088 393.566 162.032 397.886 161.456C398.75 167.408 399.758 171.536 400.91 173.84C402.062 176.24 403.598 177.44 405.518 177.44C408.206 177.44 410.318 175.376 411.854 171.248C413.39 167.216 414.35 160.832 414.734 152.096C412.91 153.92 410.942 155.264 408.83 156.128C406.718 156.992 404.366 157.424 401.774 157.424C392.654 157.424 385.31 154.256 379.742 147.92C374.174 141.584 371.39 133.28 371.39 123.008C371.39 108.896 374.894 98.24 381.902 91.04C389.006 83.744 399.47 80.096 413.294 80.096C416.846 80.096 420.926 80.432 425.534 81.104C430.142 81.776 434.462 82.688 438.494 83.84C439.838 88.448 441.038 95.792 442.094 105.872C443.246 115.856 443.822 125.12 443.822 133.664ZM481.173 116.96C481.173 123.968 482.277 129.584 484.485 133.808C486.693 137.936 489.477 140 492.837 140C493.509 140 494.181 139.808 494.853 139.424C495.525 138.944 496.149 138.32 496.725 137.552V136.4C496.725 130.928 496.341 124.64 495.573 117.536C494.901 110.432 493.989 103.616 492.837 97.088C492.549 96.992 492.213 96.944 491.829 96.944C491.541 96.944 491.061 96.944 490.389 96.944C487.221 96.944 484.869 98.576 483.333 101.84C481.893 105.104 481.173 110.144 481.173 116.96ZM525.525 133.664C525.525 153.152 521.973 167.984 514.869 178.16C507.861 188.432 497.829 193.568 484.773 193.568C475.749 193.568 468.693 191.312 463.605 186.8C458.613 182.384 456.117 176.96 456.117 170.528C459.093 168.224 462.645 166.256 466.773 164.624C470.997 163.088 475.269 162.032 479.589 161.456C480.453 167.408 481.461 171.536 482.613 173.84C483.765 176.24 485.301 177.44 487.221 177.44C489.909 177.44 492.021 175.376 493.557 171.248C495.093 167.216 496.053 160.832 496.437 152.096C494.613 153.92 492.645 155.264 490.533 156.128C488.421 156.992 486.069 157.424 483.477 157.424C474.357 157.424 467.013 154.256 461.445 147.92C455.877 141.584 453.093 133.28 453.093 123.008C453.093 108.896 456.597 98.24 463.605 91.04C470.709 83.744 481.173 80.096 494.997 80.096C498.549 80.096 502.629 80.432 507.237 81.104C511.845 81.776 516.165 82.688 520.197 83.84C521.541 88.448 522.741 95.792 523.797 105.872C524.949 115.856 525.525 125.12 525.525 133.664ZM561.115 49.136C563.995 49.136 566.683 49.376 569.179 49.856C571.675 50.336 573.787 51.008 575.515 51.872C574.651 53.888 573.691 56.864 572.635 60.8C571.579 64.64 570.811 68.048 570.331 71.024C567.067 71.6 563.419 72.032 559.387 72.32C555.355 72.512 550.795 72.56 545.707 72.464C545.035 70.352 544.507 68.24 544.123 66.128C543.835 64.016 543.691 61.952 543.691 59.936C543.691 58.4 543.739 57.056 543.835 55.904C544.027 54.752 544.267 53.696 544.555 52.736C546.763 51.488 549.211 50.576 551.899 50C554.683 49.424 557.755 49.136 561.115 49.136ZM541.099 85.424C543.691 83.888 546.715 82.736 550.171 81.968C553.627 81.2 557.371 80.816 561.403 80.816C563.323 80.816 565.195 80.912 567.019 81.104C568.939 81.296 570.763 81.536 572.491 81.824C570.379 88.064 568.507 98 566.875 111.632C565.339 125.264 564.283 140.192 563.707 156.416C561.691 157.472 559.099 158.288 555.931 158.864C552.859 159.536 549.643 159.872 546.283 159.872C544.843 159.872 543.595 159.824 542.539 159.728C541.483 159.632 540.571 159.488 539.803 159.296C538.363 145.568 537.739 132.416 537.931 119.84C538.123 107.168 539.179 95.696 541.099 85.424ZM606.106 108.176C607.258 108.464 608.362 108.704 609.418 108.896C610.57 108.992 611.53 109.04 612.298 109.04C613.066 109.04 613.93 109.04 614.89 109.04C615.946 108.944 616.666 108.848 617.05 108.752C617.626 106.448 618.058 104.288 618.346 102.272C618.73 100.256 618.922 98.432 618.922 96.8C618.922 94.784 618.634 93.296 618.058 92.336C617.578 91.376 616.81 90.896 615.754 90.896C613.834 90.896 612.01 92.48 610.282 95.648C608.554 98.72 607.162 102.896 606.106 108.176ZM623.53 130.352C627.178 131.024 630.874 132.368 634.618 134.384C638.458 136.304 641.578 138.512 643.978 141.008C643.21 143.504 641.434 146.192 638.65 149.072C635.866 151.952 632.554 154.352 628.714 156.272C625.642 157.808 622.282 158.96 618.634 159.728C615.082 160.592 611.338 161.024 607.402 161.024C597.418 161.024 589.594 158.144 583.93 152.384C578.362 146.528 575.578 138.608 575.578 128.624C575.578 122.384 576.538 116.288 578.458 110.336C580.474 104.288 583.306 98.816 586.954 93.92C591.082 88.448 595.834 84.176 601.21 81.104C606.586 78.032 612.106 76.496 617.77 76.496C625.834 76.496 632.266 78.56 637.066 82.688C641.866 86.72 644.266 92.144 644.266 98.96C644.266 102.032 643.93 105.44 643.258 109.184C642.682 112.832 641.914 116 640.954 118.688C637.978 120.128 634.282 121.232 629.866 122C625.546 122.672 620.362 123.008 614.314 123.008C612.586 123.008 610.858 122.912 609.13 122.72C607.498 122.528 605.866 122.288 604.234 122C604.138 122.576 604.09 123.248 604.09 124.016C604.09 124.688 604.09 125.744 604.09 127.184C604.09 132.944 604.81 137.36 606.25 140.432C607.786 143.504 609.946 145.04 612.73 145.04C614.554 145.04 616.522 143.552 618.634 140.576C620.746 137.6 622.378 134.192 623.53 130.352ZM769.639 94.496C769.639 107.84 764.503 120.896 754.231 133.664C743.959 146.432 731.527 154.976 716.935 159.296C712.711 159.296 708.391 159.104 703.975 158.72C699.559 158.432 695.719 158 692.455 157.424C690.919 143.888 689.767 131.072 688.999 118.976C688.231 106.784 687.847 95.408 687.847 84.848C687.847 81.296 687.847 77.696 687.847 74.048C687.943 70.4 688.087 66.752 688.279 63.104C694.711 60.128 700.663 58.016 706.135 56.768C711.607 55.424 717.319 54.752 723.271 54.752C738.343 54.752 749.815 58.16 757.687 64.976C765.655 71.792 769.639 81.632 769.639 94.496ZM718.519 71.888C717.751 81.008 717.127 90.464 716.647 100.256C716.263 109.952 716.071 120.032 716.071 130.496C716.071 132.608 716.071 134.24 716.071 135.392C716.071 136.448 716.119 137.408 716.215 138.272C723.895 134.24 729.799 128.48 733.927 120.992C738.055 113.408 740.119 104.672 740.119 94.784C740.119 87.776 738.343 82.208 734.791 78.08C731.335 73.856 726.679 71.744 720.823 71.744C720.151 71.744 719.671 71.744 719.383 71.744C719.095 71.744 718.807 71.792 718.519 71.888ZM843.984 106.448C843.984 112.496 843.168 120.752 841.536 131.216C839.904 141.584 837.792 152.288 835.2 163.328C831.84 163.328 828.24 163.088 824.4 162.608C820.56 162.224 816.816 161.648 813.168 160.88C813.36 159.248 813.504 158 813.6 157.136C813.696 156.272 813.792 155.504 813.888 154.832C811.872 155.696 809.664 156.368 807.264 156.848C804.864 157.328 802.272 157.568 799.488 157.568C791.52 157.568 785.136 155.6 780.336 151.664C775.536 147.632 773.136 142.256 773.136 135.536C773.136 128.72 775.872 123.632 781.344 120.272C786.912 116.816 795.264 115.088 806.4 115.088C810.048 115.088 812.496 115.088 813.744 115.088C814.992 115.088 816 115.136 816.768 115.232C816.672 106.208 816.096 100.064 815.04 96.8C813.984 93.536 812.256 91.904 809.856 91.904C807.552 91.904 805.536 93.488 803.808 96.656C802.176 99.728 801.312 103.664 801.216 108.464C795.072 108.464 789.936 107.312 785.808 105.008C781.776 102.704 778.992 99.392 777.456 95.072C779.28 90.08 783.408 85.808 789.84 82.256C796.272 78.704 803.712 76.928 812.16 76.928C822.624 76.928 830.544 79.424 835.92 84.416C841.296 89.408 843.984 96.752 843.984 106.448ZM801.792 137.552C801.792 139.76 802.368 141.488 803.52 142.736C804.672 143.888 806.352 144.464 808.56 144.464C809.904 144.464 811.104 144.32 812.16 144.032C813.216 143.744 814.272 143.312 815.328 142.736C815.712 139.376 815.952 136.496 816.048 134.096C816.24 131.6 816.384 129.344 816.48 127.328C811.488 127.616 807.792 128.576 805.392 130.208C802.992 131.84 801.792 134.288 801.792 137.552ZM926.889 133.664C926.889 153.152 923.337 167.984 916.233 178.16C909.225 188.432 899.193 193.568 886.137 193.568C877.113 193.568 870.057 191.312 864.969 186.8C859.977 182.384 857.481 176.96 857.481 170.528C860.457 168.224 864.009 166.256 868.137 164.624C872.361 163.088 876.633 162.032 880.953 161.456C881.817 167.408 882.825 171.536 883.977 173.84C885.129 176.24 886.665 177.44 888.585 177.44C891.657 177.44 893.913 174.896 895.353 169.808C896.889 164.816 897.801 156.416 898.089 144.608C895.593 148.352 892.761 151.136 889.593 152.96C886.521 154.784 883.017 155.696 879.081 155.696C871.785 155.696 865.689 152.384 860.793 145.76C855.993 139.04 853.593 130.592 853.593 120.416C853.593 113.984 854.025 107.888 854.889 102.128C855.753 96.272 857.337 89.024 859.641 80.384C864.537 80.384 869.145 80.624 873.465 81.104C877.881 81.488 882.585 82.16 887.577 83.12C885.657 90.512 884.313 96.848 883.545 102.128C882.777 107.408 882.393 112.976 882.393 118.832C882.393 123.632 883.017 127.616 884.265 130.784C885.513 133.856 887.193 135.392 889.305 135.392C891.033 135.392 892.569 134.768 893.913 133.52C895.353 132.176 896.649 130.16 897.801 127.472C897.417 120.272 896.649 112.736 895.497 104.864C894.345 96.896 893.241 91.184 892.185 87.728C895.545 86.48 899.865 85.52 905.145 84.848C910.425 84.176 915.897 83.84 921.561 83.84C922.905 88.448 924.105 95.792 925.161 105.872C926.313 115.856 926.889 125.12 926.889 133.664ZM977.435 109.616C986.075 114.8 991.835 119.456 994.715 123.584C997.691 127.712 999.179 132.32 999.179 137.408C999.179 145.184 995.819 151.664 989.099 156.848C982.379 161.936 974.171 164.48 964.475 164.48C956.219 164.48 949.307 161.984 943.739 156.992C938.171 152 935.387 146.096 935.387 139.28C937.595 138.224 940.523 137.36 944.171 136.688C947.819 135.92 951.083 135.536 953.963 135.536C953.963 139.76 954.827 143.168 956.555 145.76C958.379 148.352 960.923 149.648 964.187 149.648C966.587 149.648 968.411 149.12 969.659 148.064C970.907 147.008 971.531 145.472 971.531 143.456C971.531 141.44 970.715 139.472 969.083 137.552C967.547 135.632 964.043 132.992 958.571 129.632C950.411 124.544 944.987 120.08 942.299 116.24C939.611 112.304 938.267 107.888 938.267 102.992C938.267 95.312 941.195 88.976 947.051 83.984C953.003 78.896 960.587 76.352 969.803 76.352C978.923 76.352 986.315 78.368 991.979 82.4C997.739 86.432 1001.39 92.096 1002.92 99.392C1000.14 101.216 996.971 102.656 993.419 103.712C989.867 104.672 985.211 105.344 979.451 105.728C978.779 101.216 977.723 97.952 976.283 95.936C974.939 93.824 973.067 92.768 970.667 92.768C969.035 92.768 967.739 93.248 966.779 94.208C965.915 95.168 965.483 96.464 965.483 98.096C965.483 99.632 966.203 101.216 967.643 102.848C969.083 104.384 972.347 106.64 977.435 109.616Z" fill="#FBFBFB"/>
<path d="M144.71 127.911C143.571 127.911 143.351 131.846 142.331 134.772C141.844 136.17 144.566 138.515 145.868 138.515M144.71 127.911C145.362 127.911 145.673 129.71 148.79 133.525C150.169 135.213 147.171 138.515 145.868 138.515M144.71 127.911L145.868 138.515" stroke="#EEA7EF" stroke-width="20"/>
<path d="M65.8758 114.941C65.8758 121.299 80.5781 130.99 93.0208 136.663M178.799 103.955C178.799 107.766 177.92 115.213 173.37 120.9M93.0208 136.663C99.0931 139.432 105.728 141.168 112.565 140.906C138.624 139.907 139.71 122.93 142.967 117.937C146.225 112.943 146.225 130.919 161.426 127.923C166.959 126.833 170.766 124.155 173.37 120.9M93.0208 136.663C81.077 156.053 62.3325 194.665 70.219 204.82C79.5258 216.804 93.8833 200.034 93.0208 191.837C89.7634 160.879 73.4764 168.392 93.0208 136.663ZM173.37 120.9C184.662 143.296 185.314 171.531 184.228 182.849H173.37H184.771M194 182.849H184.771M184.771 182.849C188.752 185.18 190.743 187.162 190.743 191.837C190.743 199.827 176.627 200.825 173.37 191.837M133.195 134.168C134.281 140.16 143.185 147.297 148.396 144.9C154.911 141.904 155.997 130.919 155.191 127.923M73.4764 34.0491C79.9912 27.0584 63.7042 29.0558 59.361 29.0558C53.932 29.0558 6.15685 41.0397 10.5 44.0357C14.8432 47.0316 13.7574 62.0116 10.5 75.9928C7.24269 89.9741 10.6079 101.04 6.15694 105.953C0.727852 111.945 15.9291 105.953 20.2723 105.953C24.6155 105.953 41.9883 96.9647 50.6746 84.9807C59.361 72.9968 46.0351 61.8485 50.6746 55.0209C56.1036 47.0316 71.3048 34.0491 73.4764 34.0491ZM117.994 29.0558C123.061 25.7269 134.281 19.2689 138.624 20.0678C144.053 21.0665 176.627 24.0625 176.627 29.0558C176.627 34.0491 172.284 38.0437 176.627 49.029C180.97 60.0142 176.627 65.0075 184.228 75.9928C187.367 80.53 173.37 84.9807 159.254 55.0209C156.721 48.0303 149.482 34.0491 140.796 34.0491C129.938 34.0491 115.823 34.0491 117.994 29.0558Z" stroke="#4A4A4A" stroke-width="10"/>
<path d="M97.4604 75.8267C97.4604 82.5443 94.56 87.9901 88.0935 87.9901C81.627 87.9901 76.3849 82.5443 76.3849 75.8267C76.3849 69.1091 81.627 63.6633 88.0935 63.6633C94.56 63.6633 97.4604 69.1091 97.4604 75.8267Z" fill="#4A4A4A"/>
<path d="M131.05 70.3455C129.874 64.2318 131.298 58.8915 136.598 58.0351C141.898 57.1786 147.149 61.4404 148.325 67.554C149.501 73.6677 146.158 79.3181 140.858 80.1746C135.558 81.0311 132.227 76.4591 131.05 70.3455Z" fill="#4A4A4A"/>
<path d="M141.906 89.3283C130.194 86.0019 123.305 89.5501 118.482 92.6548C116.875 94.6506 107.407 100.287 110.215 103.299C116.415 109.952 122.237 101.603 123.994 103.299C129.505 108.622 130.71 108.513 135.532 107.182C139.39 106.118 139.839 102.412 139.839 100.638C146.958 98.6423 153.987 92.7595 141.906 89.3283Z" stroke="#4A4A4A" stroke-width="10"/>
<ellipse cx="136.212" cy="67.4059" rx="2.71942" ry="3.74257" fill="#C4C4C4"/>
<ellipse cx="82.5034" cy="73.0196" rx="2.71942" ry="3.74257" fill="#C4C4C4"/>
</svg>
