<svg width="107" height="100" viewBox="0 0 107 100" fill="none" xmlns="http://www.w3.org/2000/svg">
<g clip-path="url(#clip0)">
<path d="M105.612 84.9447C105.852 84.5546 106.008 84.1095 106.008 83.6191C106.008 82.7386 105.542 81.9812 104.86 81.4684C104.863 81.4257 104.887 81.3885 104.887 81.3457C104.887 79.9931 103.715 78.8976 102.265 78.8976C101.585 78.8976 100.977 79.1528 100.514 79.548C100.265 78.9573 99.7732 78.5126 99.0801 78.4398L94.4053 69.3444C94.6357 69.1518 94.887 68.9995 95.1011 68.799C95.8078 69.2792 96.6395 69.6245 97.5843 69.6245C99.9629 69.6245 101.89 67.8186 101.89 65.5978C101.89 65.085 101.737 64.6174 101.528 64.1774C103.742 63.6422 105.377 61.7818 105.377 59.5457C105.377 57.9603 104.544 56.57 103.279 55.6946C104.006 55.1991 104.504 54.4388 104.504 53.5287C104.504 52.498 103.878 51.6378 102.989 51.153C103.433 50.4476 103.754 49.6776 103.754 48.8073C103.754 46.1988 101.49 44.0829 98.6998 44.0829C97.827 44.0829 97.0433 44.3469 96.3289 44.7108C95.5769 43.9115 94.504 43.3839 93.2703 43.3839L94.3645 38.3358C94.6565 38.3896 94.9585 38.4209 95.2691 38.4209C98.0121 38.4209 100.233 36.3413 100.233 33.7777C100.233 33.7117 100.214 33.6466 100.211 33.5801C101.598 33.1913 102.631 32.0362 102.631 30.6116C102.631 28.8735 101.121 27.4629 99.2621 27.4629H99.2594C99.1684 27.1828 99.1149 26.9014 98.9859 26.64C99.1254 26.2325 99.2643 25.8187 99.2643 25.3643C99.2643 23.0474 97.252 21.1641 94.7684 21.1641C93.0027 21.1641 91.5119 22.1407 90.7763 23.5238C90.5354 23.6101 90.3267 23.7315 90.0963 23.8437C89.6417 23.6071 89.1437 23.4387 88.5928 23.4387C86.8317 23.4387 85.4083 24.7703 85.4083 26.4149C85.4083 26.97 85.5957 27.4705 85.89 27.9055C84.2362 28.7855 83.1071 30.4301 83.1071 32.3383C83.1071 35.1194 85.4808 37.3724 88.4402 37.4477L87.8168 40.3101C87.6774 40.3198 87.5542 40.3689 87.4234 40.3926C85.8796 39.1808 83.9098 38.423 81.7318 38.423C79.6447 38.423 77.7501 39.122 76.2303 40.2462C75.395 39.8108 74.4534 39.537 73.4261 39.537C70.5948 39.537 68.3362 41.4063 67.7101 43.8747C65.2323 43.6208 62.3476 43.4469 59.5724 43.557C57.6859 43.6369 55.8827 43.8548 54.2221 44.121C54.084 43.0903 53.7526 42.1277 53.2519 41.2472C54.5671 40.492 55.454 39.1656 55.454 37.6085C55.454 35.5027 53.8323 33.8285 51.7118 33.4109C52.1667 32.9442 52.4596 32.3379 52.4596 31.6588C52.4596 31.38 52.3741 31.1261 52.2899 30.8757C53.4896 30.3908 54.3317 29.2801 54.3317 27.9837C54.3317 26.6983 53.5036 25.6029 52.3247 25.1138C52.3637 24.9014 52.4596 24.7085 52.4596 24.4838C52.4596 23.4311 51.9689 22.5295 51.226 21.8555C52.0839 20.8066 52.6149 19.5073 52.6149 18.0865C52.6149 15.7556 51.2314 13.7475 49.2073 12.6745C49.3571 12.3195 49.464 11.9455 49.464 11.5406C49.464 9.80122 47.9573 8.39059 46.0962 8.39059C45.7136 8.39059 45.3591 8.48579 45.0164 8.59326C45.2093 8.27085 45.3483 7.91418 45.3483 7.51773C45.3483 6.32626 44.3595 5.38189 43.1127 5.2795C42.5668 4.22893 41.439 3.49104 40.1062 3.49104C39.6245 3.49104 39.1668 3.59597 38.7508 3.76267C38.2021 3.01716 37.3365 2.50309 36.3115 2.45697C35.3083 0.982873 33.558 0 31.5489 0C29.3681 0 27.4961 1.16777 26.5544 2.85977C25.9378 3.11109 25.3783 3.45973 24.902 3.89257C24.1595 3.03747 23.0581 2.45062 21.7673 2.45062C19.4929 2.45062 17.6489 4.17139 17.6489 6.29961C17.6489 8.42783 19.4924 10.1486 21.7673 10.1486C22.5071 10.1486 23.1681 9.91462 23.762 9.59856C23.8091 9.69249 23.8956 9.7623 23.9481 9.8575C22.8887 10.3864 22.1404 11.3955 22.1404 12.5975C22.1404 13.299 22.4333 13.9168 22.8521 14.438C15.3971 18.3518 11.9573 18.2417 10.7463 17.9054C10.9446 17.3892 11.0967 16.8502 11.0967 16.2726C11.0967 13.5656 8.75112 11.3735 5.85461 11.3735C2.95899 11.3735 0.613892 13.5656 0.613892 16.2726C0.613892 18.9788 2.95945 21.1717 5.85461 21.1717C6.38701 21.1717 6.86599 21.0254 7.34904 20.8891C8.76742 26.4136 12.1112 26.7665 14.6546 26.7686C18.9202 26.7711 21.4246 27.74 22.9621 28.8617C22.9983 29.9596 23.0304 31.0584 23.1536 32.1077C21.7071 32.5854 20.6826 33.7523 20.4132 35.1939C20.0465 35.1351 19.7152 34.9891 19.3308 34.9891C15.7905 34.9891 12.9379 37.6301 12.8229 40.9134C12.2652 40.7568 11.7083 40.5885 11.0944 40.5885C7.68541 40.5885 4.91838 43.1715 4.91838 46.3605C4.91838 48.5936 6.31774 50.476 8.30745 51.436C8.29931 51.436 8.29432 51.4309 8.28618 51.4309C4.35926 51.4309 1.17481 54.4092 1.17481 58.0783C1.17481 61.7522 4.35926 64.7283 8.28618 64.7283C9.04222 64.7283 9.72719 64.5332 10.4094 64.328C9.83132 65.2935 9.41255 66.3441 9.41255 67.5288C9.41255 71.2005 12.5956 74.1762 16.5226 74.1762C18.266 74.1762 19.8084 73.5263 21.0434 72.5506C21.6469 74.0061 22.9182 75.1015 24.5099 75.5966L26.5626 79.5953C26.5413 79.688 26.4449 79.7582 26.4449 79.8632C26.4449 80.0608 26.5988 80.2033 26.6721 80.376C26.664 80.381 26.6563 80.3857 26.6481 80.3882C26.4834 80.3557 26.3349 80.2981 26.1624 80.2981C24.8689 80.2981 23.8222 81.2785 23.8222 82.4864C23.8222 82.849 23.9454 83.1744 24.1152 83.4718C23.9209 83.5243 23.7285 83.5865 23.5479 83.6669C23.485 83.6521 23.4248 83.6195 23.3537 83.6195C22.647 83.6195 22.0824 84.1175 21.986 84.7551C21.2327 85.5455 20.7605 86.5808 20.7605 87.7215C20.7605 90.1924 22.9091 92.203 25.5557 92.203C25.5679 92.203 25.5756 92.1979 25.5865 92.1979L23.5755 98.3753L29.3074 100.001L31.8042 92.3431C31.8282 92.3431 31.8458 92.368 31.8698 92.368C32.7825 92.368 33.5087 91.6779 33.5354 90.8326C33.8953 91.1228 34.3503 91.3175 34.8655 91.3175C35.0728 91.3175 35.2657 91.2574 35.4545 91.2028L33.1198 98.3753L38.8517 100.001L41.5626 91.6724C41.8343 91.7778 42.1299 91.8379 42.4414 91.8379C43.2721 91.8379 43.9652 91.4127 44.379 90.8072C44.7163 90.8774 45.0613 90.9223 45.4198 90.9223C48.0678 90.9223 50.2151 88.9113 50.2151 86.4403C50.2151 84.6451 49.0792 83.1092 47.4512 82.3942C47.2479 82.0341 46.9668 81.724 46.6268 81.4688C46.6295 81.424 46.6535 81.3889 46.6535 81.3461C46.6535 79.9935 45.4814 78.8981 44.0313 78.8981C43.5003 78.8981 43.0317 79.0834 42.617 79.3381L39.4167 73.1062C42.1743 72.3158 44.2174 70.0103 44.2174 67.1738C44.2174 66.969 44.1119 66.796 44.0947 66.5938C44.259 66.4389 44.393 66.2735 44.5524 66.1186C52.8223 66.2087 59.94 62.6221 59.94 62.6221C60.6761 64.0877 63.5391 65.2631 65.9481 66.0285C65.9983 68.5993 68.2275 70.6674 70.9837 70.6674C71.3291 70.6674 71.6315 70.5477 71.9552 70.4901C72.0517 73.6909 74.8341 76.2719 78.2861 76.2719C79.4125 76.2719 80.4162 75.9219 81.3316 75.4468L83.8686 80.3887C83.1646 80.5384 82.5951 80.9793 82.2845 81.564C80.3736 82.1492 78.9851 83.8145 78.9851 85.7955C78.9851 87.7063 80.2722 89.3268 82.0677 89.972C82.2768 90.272 82.6033 90.5021 82.9967 90.6168L80.4705 98.3698L86.2024 100L88.8621 91.8425C89.1673 92.1527 89.5897 92.3625 90.0773 92.3625C90.9922 92.3625 91.7148 91.6746 91.7446 90.8245C91.9239 90.9769 92.1322 91.097 92.3626 91.177L90.0238 98.3698L95.7557 100L98.7048 90.9494C98.8171 91.0319 98.9293 91.1123 99.047 91.1821C99.459 91.5773 100.016 91.8375 100.656 91.8375C100.712 91.8375 100.768 91.8125 100.824 91.8078C101.076 91.8425 101.335 91.8777 101.592 91.8777C104.238 91.8777 106.387 89.8666 106.387 87.3957C106.404 86.4953 106.112 85.65 105.612 84.9447ZM34.9656 81.556C34.8401 80.9057 34.3195 80.4132 33.6074 80.3527L30.418 74.1407C31.0146 73.5149 31.3931 72.7499 31.6181 71.9101C31.796 71.8898 31.9713 71.8749 32.1465 71.8551L35.7963 78.9598C35.6102 79.1951 35.4405 79.4528 35.4405 79.7675C35.4405 80.1403 35.6102 80.4678 35.8592 80.7178C35.5224 80.9785 35.2322 81.2484 34.9656 81.556ZM93.1743 81.556C93.0458 80.863 92.4676 80.2977 91.6867 80.2977C91.617 80.2977 91.5685 80.3599 91.5047 80.3705C91.2693 80.0354 90.932 79.7777 90.472 79.7777C90.3969 79.7777 90.3543 79.8357 90.2819 79.8454C90.2715 79.8454 90.2579 79.8454 90.2502 79.8403L86.7362 72.9979C87.614 72.84 88.4488 72.5726 89.2732 72.2845L93.7208 80.9527C93.5062 81.1261 93.3559 81.3538 93.1743 81.556Z" fill="#4A4A4A"/>
</g>
<defs>
<clipPath id="clip0">
<rect width="107" height="100" fill="white"/>
</clipPath>
</defs>
</svg>
