<svg width="118" height="109" viewBox="0 0 118 109" fill="none" xmlns="http://www.w3.org/2000/svg">
<path d="M77.4223 26.8082C69.7657 28.3786 62.2209 23.7157 60.5796 16.3964C58.9394 9.07604 63.8166 1.87503 71.478 0.30351C79.1369 -1.26457 86.6781 3.39835 88.3231 10.7141C89.9657 18.0334 85.0848 25.2413 77.4223 26.8082Z" fill="#4A4A4A"/>
<path d="M1.50935 85.6083L7.8874 83.1907L18.3845 65.5216L31.8495 56.0774L37.926 59.4501L44.1815 57.2747C45.0081 55.3715 46.9715 54.0318 49.2654 54.0318C62.0467 54.0318 69.4761 45.3166 70.0986 36.9802C70.5239 32.7753 73.9845 29.3051 77.6061 27.6291C77.6061 27.6291 78.9771 26.9128 80.5368 26.6269C82.028 26.3549 83.7607 26.3457 83.7607 26.3457L83.8027 26.3434C88.7148 26.4777 94.4957 29.095 95.7213 34.5466L102.28 63.7985C102.673 65.5445 102.507 67.2079 101.96 68.7312C101.879 69.0228 95.076 85.0803 95.076 85.0803H110.489C114.637 85.0803 118 88.2945 118 92.2572C118 96.2199 114.637 99.4319 110.489 99.4319H83.9217C81.4224 99.4319 79.0865 98.2437 77.6878 96.2612C76.2928 94.2787 76.0212 91.767 76.9621 89.555L81.1857 79.6298L72.0488 82.1255L75.4889 100.185C76.2303 104.083 73.5243 107.816 69.4449 108.529C68.9907 108.609 68.5377 108.649 68.0907 108.649C64.5328 108.648 61.3714 106.221 60.7093 102.757L56.0496 78.3005C55.3574 74.6684 57.6597 71.1304 61.3738 70.1157L76.1678 66.0749L73.7634 55.3485C68.3346 61.4028 60.1025 64.5562 49.2678 64.5562C47.9304 64.5562 46.7216 64.0832 45.7676 63.3267L40.5418 65.1439L26.2081 91.332L26.8197 105.437C26.8942 107.147 25.5015 108.592 23.7099 108.665C23.6631 108.667 23.6198 108.667 23.573 108.667C21.8427 108.667 20.4032 107.363 20.3323 105.694L19.9406 96.6837L18.3881 106.369C18.143 107.901 16.7611 109 15.1823 109C15.0188 109 14.853 108.99 14.6872 108.964C12.9137 108.703 11.6988 107.123 11.9692 105.429L14.507 89.6078L10.1572 87.2453L3.27449 89.8546C2.98731 89.9648 2.68691 90.0153 2.39492 90.0153C1.44326 90.0153 0.543272 89.4712 0.169577 88.5735C-0.318269 87.4014 0.282526 86.0721 1.50935 85.6083Z" fill="#4A4A4A"/>
<path d="M30.5434 49.5021C30.1216 49.8832 29.6962 50.2666 29.2673 50.6477C28.9609 50.9209 30.7068 54.7998 30.7068 54.7998L17.5938 63.8629C16.7106 62.5416 15.8251 61.2146 14.9419 59.8887C12.9965 56.9821 11.1425 54.0147 8.85344 51.3377C8.22982 50.6099 7.48843 49.9521 6.7098 49.3678C3.12426 46.6896 5.35321 44.8449 5.92997 44.5235C7.36707 43.7142 8.95317 43.8668 10.4347 44.613C11.2602 45.032 12.0773 45.4648 12.8956 45.901C13.1359 46.0284 13.3186 46.0204 13.5457 45.8516C13.929 45.5738 14.3483 45.3328 14.7569 45.0928C17.1216 43.7199 19.4202 43.9656 21.9496 42.9163C22.8063 42.5628 28.1486 36.7117 30.9819 38.1386C34.0712 39.6929 34.2935 42.9301 33.3022 45.5382C32.7206 47.0753 31.7882 48.3874 30.5434 49.5021Z" fill="#4A4A4A"/>
</svg>
