<?xml version="1.0" encoding="iso-8859-1"?>
<!-- Generator: Adobe Illustrator 18.0.0, SVG Export Plug-In . SVG Version: 6.00 Build 0)  -->
<!DOCTYPE svg PUBLIC "-//W3C//DTD SVG 1.1//EN" "http://www.w3.org/Graphics/SVG/1.1/DTD/svg11.dtd">
<svg version="1.1" id="Capa_1" xmlns="http://www.w3.org/2000/svg" xmlns:xlink="http://www.w3.org/1999/xlink" x="0px" y="0px"
	 viewBox="0 0 460.426 460.426" style="enable-background:new 0 0 460.426 460.426;" xml:space="preserve">
<g id="XMLID_25_">
	<circle id="XMLID_228_" cx="176.556" cy="41.53" r="39.374"/>
	<g id="XMLID_788_">
		<path id="XMLID_813_" d="M460.291,304.974c-0.335-1.296-1.264-2.357-2.504-2.861l-16.933-6.882l3.737-5.55
			c0.794-1.179,1.014-2.652,0.599-4.011c-0.415-1.359-1.42-2.459-2.736-2.994l-19.076-7.752c-2.022-8.302-7.669-15.19-11.039-18.708
			c-0.496-0.518-1.241-0.713-1.928-0.505s-1.199,0.782-1.326,1.488l-3.684,20.479l0.056,0c-1.596,1.331-2.964,2.967-4.026,4.855
			c-0.614,0.804-0.057-0.292-8.568,20.64l-5.259,9.25c-54.036-10.868-93.243-30.888-117.03-46.173
			c-12.562-8.073-22.195-15.663-28.945-21.514c3.556-8.377,0.176-18-7.545-22.426l-53.533-30.689l0,0l-4.473-67.698l18.587,55.872
			l9.719-51.393c2.73-14.434-6.758-28.348-21.192-31.077l-46.606-8.814c-4.229-0.8-7.627-1.091-11.519,0.16L47.841,113.46
			c-5.139,1.649-9.252,5.54-11.185,10.579c-1.932,5.04-1.475,10.684,1.244,15.346l36.479,62.563
			c2.705,4.639,7.183,7.598,12.074,8.525l-6.62,34.536l5.253,68.13l-66.646,9.333C6.732,324.112-1.43,334.932,0.21,346.64
			c1.638,11.7,12.448,19.868,24.168,18.231l86.125-12.062c11.014-1.543,19.013-11.263,18.406-22.368l-4.274-78.237l11.134,2.106
			l26.349,78.643l13.104,106.527c1.444,11.739,12.131,20.08,23.86,18.633c11.734-1.443,20.076-12.126,18.633-23.859l-13.368-108.669
			c-0.175-1.424-0.493-2.827-0.949-4.188l-23.147-69.084l-34.258-19.639c-14.296-8.196-18.651-23.859-17.305-31.964l11.954-71.951
			l4.94,74.757l0,0c0.393,5.925,3.712,11.31,8.928,14.3c6.614,3.792,54.099,31.013,61.831,35.446
			c4.164,2.388,9.168,3.046,14.04,1.586c7.175,6.328,17.621,14.678,31.492,23.638c23.116,14.931,60.087,34.136,110.383,45.948
			l-72.264,10.69c-5.57,0.824-10.751,3.151-15.032,6.656l-17.323-9.596c-2.251-1.248-5.146-0.82-6.927,1.185
			c-2.061,2.321-1.851,5.874,0.471,7.935l12.993,11.538c-2.712,5.696-1.927,10.054-1.506,14.563
			c2.648,30.179,1.985,41.119,1.985,42.383c-1.815,1.368-3.591,2.447-5.528,4.634c-7.097,7.777-5.878,13.476-6.637,37.111
			c-0.066,2.138,1.234,4.177,3.356,4.94c2.638,0.949,5.547-0.421,6.495-3.059c8.653-24.059,7.809-22.33,8.687-23.182
			c0.984-0.912,2.444-1.153,2.353-0.961c-0.007,0.04-0.02,0.076-0.036,0.107c0.18-0.067,0.539-0.202,0.718-0.269
			c-0.516,0.286-0.124,0.073-0.231,0.134c6.627-2.291,9.907-2.364,13.875-11.103c3.309-7.327,6.9-20.61,8.922-28.394l50.029,0.487
			c2.159,2.792,4.665,5.161,7.432,7.008l8.641,56.633c0.297,1.93,1.794,3.549,3.824,3.899c2.543,0.439,4.959-1.267,5.398-3.809
			l9.712-56.286c9.798-6.117,16.591-18.688,16.733-33.271c0.026-2.684-0.178-5.302-0.583-7.831l11.758-38.037l12.013,4.882
			c7.161,2.91,15.383,0.785,20.237-5.231l7.664-9.499C460.328,307.649,460.627,306.271,460.291,304.974z M94.811,166.283
			l-14.978-25.687l21.117-6.779L94.811,166.283z"/>
	</g>
</g>
<g>
</g>
<g>
</g>
<g>
</g>
<g>
</g>
<g>
</g>
<g>
</g>
<g>
</g>
<g>
</g>
<g>
</g>
<g>
</g>
<g>
</g>
<g>
</g>
<g>
</g>
<g>
</g>
<g>
</g>
</svg>
