<svg width="139" height="109" viewBox="0 0 139 109" fill="none" xmlns="http://www.w3.org/2000/svg">
<path d="M32.9248 91.66C32.5515 93.4067 32.1715 94.9533 31.7848 96.3C31.3982 97.6467 30.9715 98.9267 30.5048 100.14C30.0382 100.287 29.5115 100.4 28.9248 100.48C28.3515 100.56 27.7848 100.607 27.2248 100.62C26.3448 98.2067 25.5915 95.8333 24.9648 93.5C24.3382 91.1667 23.8048 88.76 23.3648 86.28C24.0715 86.0667 24.7982 85.9 25.5448 85.78C26.2915 85.6467 27.0582 85.5667 27.8448 85.54C27.9782 86.98 28.1782 88.5267 28.4448 90.18C28.7248 91.82 29.0782 93.5733 29.5048 95.44C29.8115 94.3733 30.0915 93.26 30.3448 92.1C30.6115 90.94 30.9115 89.4333 31.2448 87.58C31.9515 87.42 32.7048 87.3 33.5048 87.22C34.3048 87.1267 34.9982 87.0867 35.5848 87.1C35.6382 87.4467 35.6915 87.82 35.7448 88.22C35.7982 88.62 35.8782 89.2133 35.9848 90C36.1582 91.1867 36.2848 92.0867 36.3648 92.7C36.4582 93.3133 36.5448 93.8867 36.6248 94.42C37.1848 92.78 37.6448 91.16 38.0048 89.56C38.3782 87.96 38.6448 86.3733 38.8048 84.8C39.5248 84.84 40.1915 84.9733 40.8048 85.2C41.4182 85.4267 41.9582 85.7333 42.4248 86.12C41.9582 88.4267 41.2582 90.7733 40.3248 93.16C39.4048 95.5333 38.3715 97.6267 37.2248 99.44C36.8248 99.5067 36.3915 99.5667 35.9248 99.62C35.4582 99.6733 34.9515 99.7133 34.4048 99.74C34.3915 99.6733 34.1648 98.6267 33.7248 96.6C33.2982 94.56 33.0315 92.9133 32.9248 91.66ZM51.695 91.84C51.695 92.68 51.5817 93.8267 51.355 95.28C51.1283 96.72 50.835 98.2067 50.475 99.74C50.0083 99.74 49.5083 99.7067 48.975 99.64C48.4417 99.5867 47.9217 99.5067 47.415 99.4C47.4417 99.1733 47.4617 99 47.475 98.88C47.4883 98.76 47.5017 98.6533 47.515 98.56C47.235 98.68 46.9283 98.7733 46.595 98.84C46.2617 98.9067 45.9017 98.94 45.515 98.94C44.4083 98.94 43.5217 98.6667 42.855 98.12C42.1883 97.56 41.855 96.8133 41.855 95.88C41.855 94.9333 42.235 94.2267 42.995 93.76C43.7683 93.28 44.9283 93.04 46.475 93.04C46.9817 93.04 47.3217 93.04 47.495 93.04C47.6683 93.04 47.8083 93.0467 47.915 93.06C47.9017 91.8067 47.8217 90.9533 47.675 90.5C47.5283 90.0467 47.2883 89.82 46.955 89.82C46.635 89.82 46.355 90.04 46.115 90.48C45.8883 90.9067 45.7683 91.4533 45.755 92.12C44.9017 92.12 44.1883 91.96 43.615 91.64C43.055 91.32 42.6683 90.86 42.455 90.26C42.7083 89.5667 43.2817 88.9733 44.175 88.48C45.0683 87.9867 46.1017 87.74 47.275 87.74C48.7283 87.74 49.8283 88.0867 50.575 88.78C51.3217 89.4733 51.695 90.4933 51.695 91.84ZM45.835 96.16C45.835 96.4667 45.915 96.7067 46.075 96.88C46.235 97.04 46.4683 97.12 46.775 97.12C46.9617 97.12 47.1283 97.1 47.275 97.06C47.4217 97.02 47.5683 96.96 47.715 96.88C47.7683 96.4133 47.8017 96.0133 47.815 95.68C47.8417 95.3333 47.8617 95.02 47.875 94.74C47.1817 94.78 46.6683 94.9133 46.335 95.14C46.0017 95.3667 45.835 95.7067 45.835 96.16ZM57.5497 99.84C57.203 99.9467 56.683 100.04 55.9897 100.12C55.3097 100.2 54.6897 100.24 54.1297 100.24C53.9297 97.96 53.763 95.3733 53.6297 92.48C53.4964 89.5733 53.4297 87.0267 53.4297 84.84C53.7364 84.6267 54.1164 84.46 54.5697 84.34C55.0364 84.22 55.5164 84.16 56.0097 84.16C56.383 84.16 56.723 84.18 57.0297 84.22C57.3364 84.26 57.643 84.32 57.9497 84.4C57.8297 85.7467 57.7297 87.88 57.6497 90.8C57.583 93.72 57.5497 96.7333 57.5497 99.84ZM63.0272 95.84C63.0405 96.6133 63.0672 97.3 63.1072 97.9C63.1605 98.5 63.2339 99.08 63.3272 99.64C62.8605 99.8133 62.3672 99.9333 61.8472 100C61.3272 100.08 60.6805 100.12 59.9072 100.12C59.7339 99.3467 59.6005 98.3533 59.5072 97.14C59.4139 95.9133 59.3672 94.56 59.3672 93.08C59.3672 91.5333 59.4139 89.84 59.5072 88C59.6005 86.1467 59.7205 84.8267 59.8672 84.04C60.4539 84.04 61.2205 84.12 62.1672 84.28C63.1139 84.44 63.8005 84.6133 64.2272 84.8C64.0405 85.4533 63.8472 86.4533 63.6472 87.8C63.4472 89.1333 63.2939 90.4867 63.1872 91.86C63.5605 91.46 63.9472 91.0133 64.3472 90.52C64.7472 90.0267 65.5272 89.0067 66.6872 87.46C67.1805 87.6867 67.6805 88.0333 68.1872 88.5C68.6939 88.9667 69.0805 89.4267 69.3472 89.88C68.8272 90.5333 68.2205 91.1733 67.5272 91.8C66.8339 92.4133 66.0205 93.0533 65.0872 93.72C65.5939 94.2267 66.1805 94.74 66.8472 95.26C67.5139 95.78 68.4205 96.4133 69.5672 97.16C68.9272 97.9333 68.3672 98.5 67.8872 98.86C67.4205 99.2067 66.9205 99.46 66.3872 99.62C65.7739 99.0733 65.1872 98.4867 64.6272 97.86C64.0672 97.2333 63.5339 96.56 63.0272 95.84ZM77.3088 83.8C77.7354 83.8267 78.2154 83.9867 78.7488 84.28C79.2954 84.5733 79.7621 84.9267 80.1488 85.34C79.0154 87.9933 77.5954 91.02 75.8888 94.42C74.1954 97.8067 72.6354 100.74 71.2088 103.22C70.7821 103.073 70.3554 102.893 69.9287 102.68C69.4887 102.467 69.1554 102.267 68.9287 102.08C70.0488 100 71.5688 96.8667 73.4888 92.68C75.4221 88.4933 76.6954 85.5333 77.3088 83.8ZM92.9069 98.12C92.4935 98.5467 91.9869 98.9267 91.3869 99.26C90.7869 99.5933 90.0935 99.8733 89.3069 100.1C88.4535 98.0867 87.8069 96.66 87.3669 95.82C86.9402 94.9667 86.4869 94.1867 86.0069 93.48C85.8869 93.5067 85.7935 93.5333 85.7269 93.56C85.6735 93.5733 85.6202 93.5933 85.5669 93.62C85.5402 94.58 85.5002 95.52 85.4469 96.44C85.3935 97.3467 85.3269 98.2467 85.2469 99.14C84.6469 99.14 84.0402 99.1133 83.4269 99.06C82.8135 99.02 82.2735 98.96 81.8069 98.88C81.8202 98.2533 81.8269 97.7867 81.8269 97.48C81.8402 97.1733 81.8469 96.8867 81.8469 96.62C81.8469 94.9267 81.7869 93.16 81.6669 91.32C81.5602 89.48 81.3869 87.48 81.1469 85.32C81.7735 84.7867 82.5335 84.3667 83.4269 84.06C84.3335 83.7533 85.2269 83.6 86.1069 83.6C87.8535 83.6 89.2002 83.9733 90.1469 84.72C91.0935 85.4667 91.5669 86.5133 91.5669 87.86C91.5669 88.6733 91.3535 89.4333 90.9269 90.14C90.5002 90.8467 89.8669 91.48 89.0269 92.04C89.7335 92.8533 90.4002 93.7533 91.0269 94.74C91.6669 95.7267 92.2935 96.8533 92.9069 98.12ZM85.6069 91.12V91.2C86.2335 90.96 86.7002 90.5933 87.0069 90.1C87.3135 89.6067 87.4669 88.98 87.4669 88.22C87.4669 87.4733 87.3002 86.8933 86.9669 86.48C86.6469 86.0667 86.1802 85.86 85.5669 85.86H85.4869C85.5269 87.1667 85.5535 88.2067 85.5669 88.98C85.5935 89.74 85.6069 90.4533 85.6069 91.12ZM97.5255 99.2C96.1121 99.2 95.0388 98.7267 94.3055 97.78C93.5721 96.8333 93.2055 95.4733 93.2055 93.7C93.2055 92.7267 93.3055 91.7133 93.5055 90.66C93.7188 89.5933 93.9255 88.8667 94.1255 88.48C94.4321 88.4 94.7388 88.34 95.0455 88.3C95.3655 88.26 95.6588 88.24 95.9255 88.24C96.3388 88.24 96.6921 88.2667 96.9855 88.32C97.2921 88.3733 97.5255 88.4467 97.6855 88.54C97.5655 89.26 97.4721 89.9933 97.4055 90.74C97.3388 91.4867 97.3055 92.2067 97.3055 92.9C97.3055 94.1267 97.3788 95.0867 97.5255 95.78C97.6721 96.46 97.8788 96.8 98.1455 96.8C98.3988 96.8 98.5988 96.4067 98.7455 95.62C98.8921 94.8333 98.9655 93.8067 98.9655 92.54C98.9655 91.94 98.9388 91.32 98.8855 90.68C98.8321 90.0267 98.7788 89.5733 98.7255 89.32C99.2321 89.1067 99.8588 88.94 100.605 88.82C101.352 88.6867 102.079 88.62 102.785 88.62C102.852 88.9267 102.899 89.32 102.925 89.8C102.965 90.28 102.985 90.8 102.985 91.36C102.985 93.92 102.525 95.8667 101.605 97.2C100.685 98.5333 99.3255 99.2 97.5255 99.2ZM108.402 97.02C108.402 97.3933 108.402 97.7667 108.402 98.14C108.415 98.5 108.435 98.9333 108.462 99.44C108.089 99.5467 107.582 99.64 106.942 99.72C106.302 99.8 105.709 99.84 105.162 99.84C104.962 98.3867 104.782 96.52 104.622 94.24C104.475 91.96 104.402 90.0467 104.402 88.5C104.709 88.34 105.142 88.2133 105.702 88.12C106.262 88.0267 106.835 87.98 107.422 87.98C107.689 87.98 107.949 87.9933 108.202 88.02C108.455 88.0467 108.709 88.0867 108.962 88.14C108.895 88.62 108.849 88.9667 108.822 89.18C108.795 89.3933 108.775 89.6067 108.762 89.82C109.149 89.26 109.589 88.84 110.082 88.56C110.575 88.28 111.115 88.14 111.702 88.14C112.635 88.14 113.342 88.48 113.822 89.16C114.302 89.8267 114.542 90.82 114.542 92.14C114.542 93.18 114.455 94.38 114.282 95.74C114.109 97.0867 113.929 98.1067 113.742 98.8C113.222 98.8 112.649 98.7733 112.022 98.72C111.395 98.6533 110.675 98.5533 109.862 98.42C110.089 97.1667 110.262 96 110.382 94.92C110.515 93.8267 110.582 92.94 110.582 92.26C110.582 91.8867 110.529 91.6133 110.422 91.44C110.315 91.2533 110.149 91.16 109.922 91.16C109.669 91.16 109.422 91.3067 109.182 91.6C108.942 91.8933 108.729 92.3 108.542 92.82C108.489 93.66 108.449 94.4333 108.422 95.14C108.409 95.8333 108.402 96.46 108.402 97.02Z" fill="#4A4A4A"/>
<path d="M56.7554 15.3296C61.6296 15.3296 65.5809 11.898 65.5809 7.66481C65.5809 3.43165 61.6296 0 56.7554 0C51.8812 0 47.9299 3.43165 47.9299 7.66481C47.9299 11.898 51.8812 15.3296 56.7554 15.3296Z" fill="#4A4A4A"/>
<path d="M87.4574 53.8195L84.1382 51.5041C83.3878 50.9801 82.2899 51.0836 81.6867 51.736C81.0843 52.3876 81.2034 53.3412 81.9537 53.8643L85.3403 56.2269V62.6515C85.3403 62.6826 82.3705 67.7324 82.3705 67.7324C81.9257 68.4746 82.2584 69.3886 83.112 69.7749C83.3694 69.8904 83.6444 69.946 83.9149 69.946C84.5444 69.946 85.1521 69.6494 85.4637 69.1308L88.4642 64.1244L91.8219 69.1886C92.145 69.6753 92.7307 69.9475 93.3349 69.9475C93.6299 69.9475 93.9294 69.8821 94.2034 69.7445C95.0378 69.327 95.325 68.4008 94.8443 67.6769L91.9139 63.2575H102.765V68.432C102.765 69.2692 103.546 69.9467 104.509 69.9467C105.472 69.9467 106.252 69.2677 106.252 68.432V62.7055C106.254 62.688 106.265 62.6712 106.265 62.6538V57.8648L98.1442 53.8217H87.4574V53.8195Z" fill="#4A4A4A"/>
<path d="M110.777 50.7406C109.699 49.8586 109.337 48.8267 108.128 48.0792C107.917 47.95 107.703 47.8169 107.479 47.7067C107.344 47.6413 107.301 47.5637 107.316 47.4375C107.368 47.0033 107.418 46.5676 107.458 46.1341C107.53 45.3563 107.27 44.646 106.551 44.1868C106.262 44.0012 104.836 43.4013 104.215 45.4551C104.08 45.9007 103.896 46.3448 103.65 46.7531C102.755 48.2488 101.616 49.6168 100.527 51.0098C100.03 51.6448 99.5318 52.2797 99.0371 52.9131L106.661 56.6839C106.661 56.6839 108.131 55.2886 108.338 55.3677C108.623 55.4779 108.911 55.5844 109.198 55.6931C110.037 56.011 110.912 56.1577 111.83 56.1114C113.388 56.0323 115.012 55.3129 115.161 53.6895C115.297 52.2006 111.141 51.038 110.777 50.7406Z" fill="#4A4A4A"/>
<path d="M82.3669 39.0358L96.759 52.5716L98.1144 51.485L83.7161 37.9431C79.3156 33.8803 75.4457 30.603 72.6641 31.625C72.5424 31.6698 72.4268 31.7223 72.3148 31.7824C65.7421 30.9976 64.3508 28.3423 62.246 24.3251C61.1043 22.1451 59.8094 19.6738 57.4936 17.4937C57.477 17.4777 57.456 17.4671 57.4384 17.4511C56.6294 16.6748 55.6418 16.0474 54.6341 15.6231C54.6341 15.6231 53.7831 15.2186 52.8112 15.0566C51.8822 14.9015 50.2739 14.9426 49.2547 15.0505C38.4908 16.4177 33.7148 23.3244 29.1103 30.0251L28.6392 30.711C27.6683 32.1207 28.1971 33.948 29.8212 34.792C30.3719 35.0779 30.9778 35.214 31.5767 35.214C32.742 35.214 33.8785 34.6977 34.5203 33.7655L34.9948 33.075C37.3701 29.6175 39.482 26.5607 42.1795 24.351L39.2867 36.0771C38.8822 37.7165 39.411 39.2289 40.4591 40.457L39.573 52.1968L33.9398 64.8452C33.0712 66.7964 34.1875 68.9902 36.4342 69.7437C36.9508 69.9179 37.4831 70 38.0058 70C39.7551 70 41.4046 69.0791 42.0736 67.5773L47.9467 54.3875C48.106 54.0293 48.2023 53.6522 48.2312 53.2689L48.7469 46.4345L53.9284 53.5472L58.1704 67.1074C58.6905 68.8024 60.4538 69.9201 62.3809 69.9186C62.7521 69.9186 63.1303 69.8768 63.5077 69.7909C65.8349 69.2517 67.2182 67.1766 66.5975 65.1555L62.1839 51.0349C62.0701 50.6653 61.8923 50.311 61.655 49.9863L54.5999 40.3034C54.8258 39.9125 55.0071 39.4898 55.1226 39.0213L57.484 29.4517C59.58 32.8925 62.8186 36.3318 70.2432 37.5066C70.2415 37.9941 70.2555 38.5119 70.2844 39.0616L72.1274 38.9871C72.102 38.5149 72.0924 38.0899 72.0906 37.6907C73.6824 37.6002 75.0377 36.5607 75.2618 35.1342C75.3678 34.4635 75.1962 33.8202 74.839 33.2727C77.0908 34.1601 80.5212 37.3317 82.3669 39.0358Z" fill="#4A4A4A"/>
</svg>
