<svg width="127" height="115" viewBox="0 0 127 115" fill="none" xmlns="http://www.w3.org/2000/svg">
<path d="M12.4 90.8C12.5067 92.9867 12.5933 95.5467 12.66 98.48C12.74 101.413 12.78 103.987 12.78 106.2C12.0467 106.2 11.2867 106.167 10.5 106.1C9.71333 106.033 9.14667 105.947 8.8 105.84C8.8 104.973 8.79333 103.96 8.78 102.8C8.76667 101.64 8.75333 100.467 8.74 99.28C8.08667 99.2933 7.47333 99.32 6.9 99.36C6.32667 99.3867 5.78667 99.4333 5.28 99.5C5.26667 100.167 5.25333 100.873 5.24 101.62C5.24 102.353 5.24 103.32 5.24 104.52C4.89333 104.627 4.36 104.72 3.64 104.8C2.93333 104.88 2.29333 104.92 1.72 104.92C1.44 101.52 1.24 98.78 1.12 96.7C1.01333 94.62 0.96 92.8533 0.96 91.4C1.28 91.1867 1.68 91.02 2.16 90.9C2.64 90.78 3.13333 90.72 3.64 90.72C4.01333 90.72 4.35333 90.74 4.66 90.78C4.96667 90.82 5.27333 90.88 5.58 90.96C5.52667 91.56 5.48 92.3333 5.44 93.28C5.4 94.2267 5.36667 95.2867 5.34 96.46C5.92667 96.3667 6.49333 96.2933 7.04 96.24C7.58667 96.1733 8.13333 96.1333 8.68 96.12C8.65333 94.96 8.61333 93.8867 8.56 92.9C8.50667 91.9 8.45333 91.0667 8.4 90.4C8.72 90.32 9.01333 90.26 9.28 90.22C9.56 90.18 9.84667 90.16 10.14 90.16C10.5667 90.16 10.98 90.22 11.38 90.34C11.78 90.4467 12.12 90.6 12.4 90.8ZM14.2305 100.34C14.2305 98.46 14.7705 96.9267 15.8505 95.74C16.9438 94.54 18.3571 93.94 20.0905 93.94C21.3971 93.94 22.4105 94.3067 23.1305 95.04C23.8505 95.7733 24.2105 96.8133 24.2105 98.16C24.2105 99 24.0771 99.8533 23.8105 100.72C23.5571 101.587 23.1971 102.34 22.7305 102.98C22.1971 103.713 21.5571 104.267 20.8105 104.64C20.0771 105.013 19.2438 105.2 18.3105 105.2C17.0171 105.2 16.0105 104.767 15.2905 103.9C14.5838 103.02 14.2305 101.833 14.2305 100.34ZM20.2305 99.26C20.2305 98.22 20.1505 97.46 19.9905 96.98C19.8305 96.4867 19.5771 96.24 19.2305 96.24C18.9105 96.24 18.6438 96.5667 18.4305 97.22C18.2305 97.8733 18.1305 98.7267 18.1305 99.78C18.1305 100.647 18.2238 101.387 18.4105 102C18.5971 102.6 18.8505 102.9 19.1705 102.9C19.5038 102.9 19.7638 102.567 19.9505 101.9C20.1371 101.22 20.2305 100.34 20.2305 99.26ZM29.7247 105.2C28.3114 105.2 27.238 104.727 26.5047 103.78C25.7714 102.833 25.4047 101.473 25.4047 99.7C25.4047 98.7267 25.5047 97.7133 25.7047 96.66C25.918 95.5933 26.1247 94.8667 26.3247 94.48C26.6314 94.4 26.938 94.34 27.2447 94.3C27.5647 94.26 27.858 94.24 28.1247 94.24C28.538 94.24 28.8914 94.2667 29.1847 94.32C29.4914 94.3733 29.7247 94.4467 29.8847 94.54C29.7647 95.26 29.6714 95.9933 29.6047 96.74C29.538 97.4867 29.5047 98.2067 29.5047 98.9C29.5047 100.127 29.578 101.087 29.7247 101.78C29.8714 102.46 30.078 102.8 30.3447 102.8C30.598 102.8 30.798 102.407 30.9447 101.62C31.0914 100.833 31.1647 99.8067 31.1647 98.54C31.1647 97.94 31.138 97.32 31.0847 96.68C31.0314 96.0267 30.978 95.5733 30.9247 95.32C31.4314 95.1067 32.058 94.94 32.8047 94.82C33.5514 94.6867 34.278 94.62 34.9847 94.62C35.0514 94.9267 35.098 95.32 35.1247 95.8C35.1647 96.28 35.1847 96.8 35.1847 97.36C35.1847 99.92 34.7247 101.867 33.8047 103.2C32.8847 104.533 31.5247 105.2 29.7247 105.2ZM41.9213 98.28C43.1213 99 43.9213 99.6467 44.3213 100.22C44.7346 100.793 44.9413 101.433 44.9413 102.14C44.9413 103.22 44.4746 104.12 43.5413 104.84C42.6079 105.547 41.4679 105.9 40.1213 105.9C38.9746 105.9 38.0146 105.553 37.2413 104.86C36.4679 104.167 36.0813 103.347 36.0813 102.4C36.3879 102.253 36.7946 102.133 37.3013 102.04C37.8079 101.933 38.2613 101.88 38.6613 101.88C38.6613 102.467 38.7813 102.94 39.0213 103.3C39.2746 103.66 39.6279 103.84 40.0813 103.84C40.4146 103.84 40.6679 103.767 40.8413 103.62C41.0146 103.473 41.1013 103.26 41.1013 102.98C41.1013 102.7 40.9879 102.427 40.7613 102.16C40.5479 101.893 40.0613 101.527 39.3013 101.06C38.1679 100.353 37.4146 99.7333 37.0413 99.2C36.6679 98.6533 36.4813 98.04 36.4813 97.36C36.4813 96.2933 36.8879 95.4133 37.7013 94.72C38.5279 94.0133 39.5813 93.66 40.8613 93.66C42.1279 93.66 43.1546 93.94 43.9413 94.5C44.7413 95.06 45.2479 95.8467 45.4613 96.86C45.0746 97.1133 44.6346 97.3133 44.1413 97.46C43.6479 97.5933 43.0013 97.6867 42.2013 97.74C42.1079 97.1133 41.9613 96.66 41.7613 96.38C41.5746 96.0867 41.3146 95.94 40.9813 95.94C40.7546 95.94 40.5746 96.0067 40.4413 96.14C40.3213 96.2733 40.2613 96.4533 40.2613 96.68C40.2613 96.8933 40.3613 97.1133 40.5613 97.34C40.7613 97.5533 41.2146 97.8667 41.9213 98.28ZM50.6017 98.08C50.7617 98.12 50.9151 98.1533 51.0617 98.18C51.2217 98.1933 51.3551 98.2 51.4617 98.2C51.5684 98.2 51.6884 98.2 51.8217 98.2C51.9684 98.1867 52.0684 98.1733 52.1217 98.16C52.2017 97.84 52.2617 97.54 52.3017 97.26C52.3551 96.98 52.3817 96.7267 52.3817 96.5C52.3817 96.22 52.3417 96.0133 52.2617 95.88C52.1951 95.7467 52.0884 95.68 51.9417 95.68C51.6751 95.68 51.4217 95.9 51.1817 96.34C50.9417 96.7667 50.7484 97.3467 50.6017 98.08ZM53.0217 101.16C53.5284 101.253 54.0417 101.44 54.5617 101.72C55.0951 101.987 55.5284 102.293 55.8617 102.64C55.7551 102.987 55.5084 103.36 55.1217 103.76C54.7351 104.16 54.2751 104.493 53.7417 104.76C53.3151 104.973 52.8484 105.133 52.3417 105.24C51.8484 105.36 51.3284 105.42 50.7817 105.42C49.3951 105.42 48.3084 105.02 47.5217 104.22C46.7484 103.407 46.3617 102.307 46.3617 100.92C46.3617 100.053 46.4951 99.2067 46.7617 98.38C47.0417 97.54 47.4351 96.78 47.9417 96.1C48.5151 95.34 49.1751 94.7467 49.9217 94.32C50.6684 93.8933 51.4351 93.68 52.2217 93.68C53.3417 93.68 54.2351 93.9667 54.9017 94.54C55.5684 95.1 55.9017 95.8533 55.9017 96.8C55.9017 97.2267 55.8551 97.7 55.7617 98.22C55.6817 98.7267 55.5751 99.1667 55.4417 99.54C55.0284 99.74 54.5151 99.8933 53.9017 100C53.3017 100.093 52.5817 100.14 51.7417 100.14C51.5017 100.14 51.2617 100.127 51.0217 100.1C50.7951 100.073 50.5684 100.04 50.3417 100C50.3284 100.08 50.3217 100.173 50.3217 100.28C50.3217 100.373 50.3217 100.52 50.3217 100.72C50.3217 101.52 50.4217 102.133 50.6217 102.56C50.8351 102.987 51.1351 103.2 51.5217 103.2C51.7751 103.2 52.0484 102.993 52.3417 102.58C52.6351 102.167 52.8617 101.693 53.0217 101.16ZM70.7347 98.16C71.0414 98.5867 71.268 99.04 71.4147 99.52C71.5614 99.9867 71.6347 100.493 71.6347 101.04C71.6347 102.413 71.1414 103.553 70.1547 104.46C69.168 105.353 67.9547 105.8 66.5147 105.8C64.928 105.8 63.6014 105.313 62.5347 104.34C61.4814 103.353 60.9547 102.187 60.9547 100.84C61.3814 100.627 61.8947 100.447 62.4947 100.3C63.108 100.14 63.6147 100.06 64.0147 100.06C64.0147 101.073 64.2014 101.893 64.5747 102.52C64.9614 103.133 65.4814 103.44 66.1347 103.44C66.6014 103.44 66.9614 103.313 67.2147 103.06C67.468 102.793 67.5947 102.433 67.5947 101.98C67.5947 101.593 67.4614 101.22 67.1947 100.86C66.9414 100.487 66.368 99.96 65.4747 99.28C64.808 98.7733 64.3147 98.3667 63.9947 98.06C63.6747 97.7533 63.4014 97.4533 63.1747 97.16C62.8547 96.7067 62.6147 96.24 62.4547 95.76C62.2947 95.2667 62.2147 94.74 62.2147 94.18C62.2147 92.8467 62.688 91.76 63.6347 90.92C64.5947 90.08 65.848 89.66 67.3947 89.66C68.768 89.66 69.868 89.9933 70.6947 90.66C71.5347 91.3133 72.088 92.2867 72.3547 93.58C71.968 93.8333 71.528 94.0333 71.0347 94.18C70.5414 94.3133 69.8947 94.4067 69.0947 94.46C68.9747 93.6333 68.7747 93.04 68.4947 92.68C68.2147 92.32 67.828 92.14 67.3347 92.14C67.028 92.14 66.7814 92.24 66.5947 92.44C66.4214 92.6267 66.3347 92.88 66.3347 93.2C66.3347 93.64 66.468 94.06 66.7347 94.46C67.0014 94.86 67.588 95.4 68.4947 96.08C69.1614 96.5733 69.648 96.9667 69.9547 97.26C70.2614 97.5533 70.5214 97.8533 70.7347 98.16ZM76.3061 89.88C76.7061 89.88 77.0794 89.9133 77.4261 89.98C77.7728 90.0467 78.0661 90.14 78.3061 90.26C78.1861 90.54 78.0528 90.9533 77.9061 91.5C77.7594 92.0333 77.6528 92.5067 77.5861 92.92C77.1328 93 76.6261 93.06 76.0661 93.1C75.5061 93.1267 74.8728 93.1333 74.1661 93.12C74.0728 92.8267 73.9994 92.5333 73.9461 92.24C73.9061 91.9467 73.8861 91.66 73.8861 91.38C73.8861 91.1667 73.8928 90.98 73.9061 90.82C73.9328 90.66 73.9661 90.5133 74.0061 90.38C74.3128 90.2067 74.6528 90.08 75.0261 90C75.4128 89.92 75.8394 89.88 76.3061 89.88ZM73.5261 94.92C73.8861 94.7067 74.3061 94.5467 74.7861 94.44C75.2661 94.3333 75.7861 94.28 76.3461 94.28C76.6128 94.28 76.8728 94.2933 77.1261 94.32C77.3928 94.3467 77.6461 94.38 77.8861 94.42C77.5928 95.2867 77.3328 96.6667 77.1061 98.56C76.8928 100.453 76.7461 102.527 76.6661 104.78C76.3861 104.927 76.0261 105.04 75.5861 105.12C75.1594 105.213 74.7128 105.26 74.2461 105.26C74.0461 105.26 73.8728 105.253 73.7261 105.24C73.5794 105.227 73.4528 105.207 73.3461 105.18C73.1461 103.273 73.0594 101.447 73.0861 99.7C73.1128 97.94 73.2594 96.3467 73.5261 94.92ZM84.8909 100.36C85.3443 100.413 85.8043 100.533 86.2709 100.72C86.7509 100.907 87.1776 101.147 87.5509 101.44C87.5509 102.4 87.2509 103.213 86.6509 103.88C86.0509 104.547 85.2176 104.88 84.1509 104.88C82.8043 104.88 81.7576 104.407 81.0109 103.46C80.2776 102.5 79.9109 101.113 79.9109 99.3C79.9109 98.8733 79.9176 98.4333 79.9309 97.98C79.9443 97.5133 79.9709 97.0267 80.0109 96.52C79.7443 96.48 79.4909 96.4333 79.2509 96.38C79.0109 96.3267 78.7976 96.2733 78.6109 96.22C78.6109 95.7933 78.6509 95.3867 78.7309 95C78.8109 94.6133 78.9243 94.3133 79.0709 94.1C79.2043 94.14 79.3643 94.1867 79.5509 94.24C79.7509 94.28 79.9909 94.32 80.2709 94.36C80.3509 93.8133 80.4309 93.34 80.5109 92.94C80.6043 92.5267 80.6976 92.16 80.7909 91.84C81.5909 91.84 82.3643 91.8933 83.1109 92C83.8709 92.0933 84.4843 92.22 84.9509 92.38C84.8709 92.7 84.7843 93.06 84.6909 93.46C84.5976 93.8467 84.5176 94.2467 84.4509 94.66C85.0109 94.6733 85.5443 94.6733 86.0509 94.66C86.5709 94.6333 87.0243 94.5933 87.4109 94.54C87.4109 94.8467 87.3776 95.1933 87.3109 95.58C87.2443 95.9667 87.1509 96.32 87.0309 96.64C86.6976 96.7067 86.2709 96.76 85.7509 96.8C85.2309 96.8267 84.6843 96.8333 84.1109 96.82C84.0443 97.3267 83.9909 97.8333 83.9509 98.34C83.9109 98.8467 83.8909 99.3267 83.8909 99.78C83.8909 100.9 83.9309 101.66 84.0109 102.06C84.0909 102.447 84.2243 102.64 84.4109 102.64C84.5309 102.64 84.6376 102.44 84.7309 102.04C84.8243 101.627 84.8776 101.067 84.8909 100.36ZM94.0902 100.36C94.5435 100.413 95.0035 100.533 95.4702 100.72C95.9502 100.907 96.3768 101.147 96.7502 101.44C96.7502 102.4 96.4502 103.213 95.8502 103.88C95.2502 104.547 94.4168 104.88 93.3502 104.88C92.0035 104.88 90.9568 104.407 90.2102 103.46C89.4768 102.5 89.1102 101.113 89.1102 99.3C89.1102 98.8733 89.1168 98.4333 89.1302 97.98C89.1435 97.5133 89.1702 97.0267 89.2102 96.52C88.9435 96.48 88.6902 96.4333 88.4502 96.38C88.2102 96.3267 87.9968 96.2733 87.8102 96.22C87.8102 95.7933 87.8502 95.3867 87.9302 95C88.0102 94.6133 88.1235 94.3133 88.2702 94.1C88.4035 94.14 88.5635 94.1867 88.7502 94.24C88.9502 94.28 89.1902 94.32 89.4702 94.36C89.5502 93.8133 89.6302 93.34 89.7102 92.94C89.8035 92.5267 89.8968 92.16 89.9902 91.84C90.7902 91.84 91.5635 91.8933 92.3102 92C93.0702 92.0933 93.6835 92.22 94.1502 92.38C94.0702 92.7 93.9835 93.06 93.8902 93.46C93.7968 93.8467 93.7168 94.2467 93.6502 94.66C94.2102 94.6733 94.7435 94.6733 95.2502 94.66C95.7702 94.6333 96.2235 94.5933 96.6102 94.54C96.6102 94.8467 96.5768 95.1933 96.5102 95.58C96.4435 95.9667 96.3502 96.32 96.2302 96.64C95.8968 96.7067 95.4702 96.76 94.9502 96.8C94.4302 96.8267 93.8835 96.8333 93.3102 96.82C93.2435 97.3267 93.1902 97.8333 93.1502 98.34C93.1102 98.8467 93.0902 99.3267 93.0902 99.78C93.0902 100.9 93.1302 101.66 93.2102 102.06C93.2902 102.447 93.4235 102.64 93.6102 102.64C93.7302 102.64 93.8368 102.44 93.9302 102.04C94.0235 101.627 94.0768 101.067 94.0902 100.36ZM101.169 89.88C101.569 89.88 101.943 89.9133 102.289 89.98C102.636 90.0467 102.929 90.14 103.169 90.26C103.049 90.54 102.916 90.9533 102.769 91.5C102.623 92.0333 102.516 92.5067 102.449 92.92C101.996 93 101.489 93.06 100.929 93.1C100.369 93.1267 99.736 93.1333 99.0294 93.12C98.936 92.8267 98.8627 92.5333 98.8094 92.24C98.7694 91.9467 98.7494 91.66 98.7494 91.38C98.7494 91.1667 98.756 90.98 98.7694 90.82C98.796 90.66 98.8294 90.5133 98.8694 90.38C99.176 90.2067 99.516 90.08 99.8894 90C100.276 89.92 100.703 89.88 101.169 89.88ZM98.3894 94.92C98.7494 94.7067 99.1694 94.5467 99.6494 94.44C100.129 94.3333 100.649 94.28 101.209 94.28C101.476 94.28 101.736 94.2933 101.989 94.32C102.256 94.3467 102.509 94.38 102.749 94.42C102.456 95.2867 102.196 96.6667 101.969 98.56C101.756 100.453 101.609 102.527 101.529 104.78C101.249 104.927 100.889 105.04 100.449 105.12C100.023 105.213 99.576 105.26 99.1094 105.26C98.9094 105.26 98.736 105.253 98.5894 105.24C98.4427 105.227 98.316 105.207 98.2094 105.18C98.0094 103.273 97.9227 101.447 97.9494 99.7C97.976 97.94 98.1227 96.3467 98.3894 94.92ZM108.004 103.02C108.004 103.393 108.004 103.767 108.004 104.14C108.017 104.5 108.037 104.933 108.064 105.44C107.69 105.547 107.184 105.64 106.544 105.72C105.904 105.8 105.31 105.84 104.764 105.84C104.564 104.387 104.384 102.52 104.224 100.24C104.077 97.96 104.004 96.0467 104.004 94.5C104.31 94.34 104.744 94.2133 105.304 94.12C105.864 94.0267 106.437 93.98 107.024 93.98C107.29 93.98 107.55 93.9933 107.804 94.02C108.057 94.0467 108.31 94.0867 108.564 94.14C108.497 94.62 108.45 94.9667 108.424 95.18C108.397 95.3933 108.377 95.6067 108.364 95.82C108.75 95.26 109.19 94.84 109.684 94.56C110.177 94.28 110.717 94.14 111.304 94.14C112.237 94.14 112.944 94.48 113.424 95.16C113.904 95.8267 114.144 96.82 114.144 98.14C114.144 99.18 114.057 100.38 113.884 101.74C113.71 103.087 113.53 104.107 113.344 104.8C112.824 104.8 112.25 104.773 111.624 104.72C110.997 104.653 110.277 104.553 109.464 104.42C109.69 103.167 109.864 102 109.984 100.92C110.117 99.8267 110.184 98.94 110.184 98.26C110.184 97.8867 110.13 97.6133 110.024 97.44C109.917 97.2533 109.75 97.16 109.524 97.16C109.27 97.16 109.024 97.3067 108.784 97.6C108.544 97.8933 108.33 98.3 108.144 98.82C108.09 99.66 108.05 100.433 108.024 101.14C108.01 101.833 108.004 102.46 108.004 103.02ZM119.637 99.3C119.637 100.273 119.79 101.053 120.097 101.64C120.403 102.213 120.79 102.5 121.257 102.5C121.35 102.5 121.443 102.473 121.537 102.42C121.63 102.353 121.717 102.267 121.797 102.16V102C121.797 101.24 121.743 100.367 121.637 99.38C121.543 98.3933 121.417 97.4467 121.257 96.54C121.217 96.5267 121.17 96.52 121.117 96.52C121.077 96.52 121.01 96.52 120.917 96.52C120.477 96.52 120.15 96.7467 119.937 97.2C119.737 97.6533 119.637 98.3533 119.637 99.3ZM125.797 101.62C125.797 104.327 125.303 106.387 124.317 107.8C123.343 109.227 121.95 109.94 120.137 109.94C118.883 109.94 117.903 109.627 117.197 109C116.503 108.387 116.157 107.633 116.157 106.74C116.57 106.42 117.063 106.147 117.637 105.92C118.223 105.707 118.817 105.56 119.417 105.48C119.537 106.307 119.677 106.88 119.837 107.2C119.997 107.533 120.21 107.7 120.477 107.7C120.85 107.7 121.143 107.413 121.357 106.84C121.57 106.28 121.703 105.393 121.757 104.18C121.503 104.433 121.23 104.62 120.937 104.74C120.643 104.86 120.317 104.92 119.957 104.92C118.69 104.92 117.67 104.48 116.897 103.6C116.123 102.72 115.737 101.567 115.737 100.14C115.737 98.18 116.223 96.7 117.197 95.7C118.183 94.6867 119.637 94.18 121.557 94.18C122.05 94.18 122.617 94.2267 123.257 94.32C123.897 94.4133 124.497 94.54 125.057 94.7C125.243 95.34 125.41 96.36 125.557 97.76C125.717 99.1467 125.797 100.433 125.797 101.62Z" fill="#4A4A4A"/>
<g clip-path="url(#clip0)">
<path d="M103.692 25.7796L65.8727 0.402474C65.0725 -0.134301 63.9273 -0.134301 63.1271 0.402474L25.3079 25.7796C24.5907 26.2607 24.3178 27.0634 24.6261 27.7836C24.9346 28.5038 25.7574 28.9848 26.6806 28.9848H33.1199V63.2039H28.7536C27.5496 63.2039 26.5738 64.0115 26.5738 65.0079V70.1963C26.5738 71.1926 27.5496 72.0002 28.7536 72.0002H100.246C101.45 72.0002 102.426 71.1926 102.426 70.1963V65.0079C102.426 64.0115 101.45 63.2039 100.246 63.2039H96.0165V28.9848H102.319C103.242 28.9848 104.065 28.5038 104.374 27.7836C104.682 27.0634 104.409 26.2607 103.692 25.7796ZM64.568 35.6975C71.1099 35.6975 76.4322 40.4076 76.4322 46.1971V63.2039H52.7037V46.1967C52.7039 40.4074 58.0262 35.6975 64.568 35.6975ZM30.9334 66.8118H47.2967V68.3923H30.9334V66.8118ZM51.6562 68.3921V66.8116H77.3436V68.3921H51.6562ZM98.0664 68.3921H81.7031V66.8116H98.0664V68.3921Z" fill="#4A4A4A"/>
</g>
<defs>
<clipPath id="clip0">
<rect x="21" width="87" height="72" fill="white"/>
</clipPath>
</defs>
</svg>
