<svg width="142" height="108" viewBox="0 0 142 108" fill="none" xmlns="http://www.w3.org/2000/svg">
<path d="M5.22 93.82C5.22 94.3 5.22667 94.82 5.24 95.38C5.25333 95.9267 5.30667 97.2533 5.4 99.36C4.8 99.36 4.19333 99.3333 3.58 99.28C2.96667 99.24 2.42667 99.18 1.96 99.1C1.70667 96.98 1.52 94.94 1.4 92.98C1.28 91.0067 1.22 89.0933 1.22 87.24C1.22 86.8267 1.22667 86.3867 1.24 85.92C1.26667 85.4533 1.30667 84.92 1.36 84.32C2.05333 83.9733 2.89333 83.6933 3.88 83.48C4.88 83.2667 5.86 83.16 6.82 83.16C8.44667 83.16 9.7 83.5067 10.58 84.2C11.4733 84.88 11.92 85.8333 11.92 87.06C11.92 88.5533 11.32 89.9067 10.12 91.12C8.93333 92.3333 7.3 93.2333 5.22 93.82ZM7.8 87.78C7.8 87.0067 7.64667 86.42 7.34 86.02C7.04667 85.62 6.6 85.42 6 85.42C5.88 85.42 5.78667 85.42 5.72 85.42C5.66667 85.42 5.61333 85.4267 5.56 85.44C5.48 86.3333 5.41333 87.26 5.36 88.22C5.30667 89.18 5.26667 90.1867 5.24 91.24C6.09333 91.0133 6.73333 90.6133 7.16 90.04C7.58667 89.4667 7.8 88.7133 7.8 87.78ZM21.9997 90.84C21.9997 91.68 21.8864 92.8267 21.6597 94.28C21.433 95.72 21.1397 97.2067 20.7797 98.74C20.313 98.74 19.813 98.7067 19.2797 98.64C18.7464 98.5867 18.2264 98.5067 17.7197 98.4C17.7464 98.1733 17.7664 98 17.7797 97.88C17.793 97.76 17.8064 97.6533 17.8197 97.56C17.5397 97.68 17.233 97.7733 16.8997 97.84C16.5664 97.9067 16.2064 97.94 15.8197 97.94C14.713 97.94 13.8264 97.6667 13.1597 97.12C12.493 96.56 12.1597 95.8133 12.1597 94.88C12.1597 93.9333 12.5397 93.2267 13.2997 92.76C14.073 92.28 15.233 92.04 16.7797 92.04C17.2864 92.04 17.6264 92.04 17.7997 92.04C17.973 92.04 18.113 92.0467 18.2197 92.06C18.2064 90.8067 18.1264 89.9533 17.9797 89.5C17.833 89.0467 17.593 88.82 17.2597 88.82C16.9397 88.82 16.6597 89.04 16.4197 89.48C16.193 89.9067 16.073 90.4533 16.0597 91.12C15.2064 91.12 14.493 90.96 13.9197 90.64C13.3597 90.32 12.973 89.86 12.7597 89.26C13.013 88.5667 13.5864 87.9733 14.4797 87.48C15.373 86.9867 16.4064 86.74 17.5797 86.74C19.033 86.74 20.133 87.0867 20.8797 87.78C21.6264 88.4733 21.9997 89.4933 21.9997 90.84ZM16.1397 95.16C16.1397 95.4667 16.2197 95.7067 16.3797 95.88C16.5397 96.04 16.773 96.12 17.0797 96.12C17.2664 96.12 17.433 96.1 17.5797 96.06C17.7264 96.02 17.873 95.96 18.0197 95.88C18.073 95.4133 18.1064 95.0133 18.1197 94.68C18.1464 94.3333 18.1664 94.02 18.1797 93.74C17.4864 93.78 16.973 93.9133 16.6397 94.14C16.3064 94.3667 16.1397 94.7067 16.1397 95.16ZM27.8144 93.94C27.841 94.5933 27.8877 95.2667 27.9544 95.96C28.0344 96.64 28.1277 97.3267 28.2344 98.02C27.901 98.14 27.5277 98.22 27.1144 98.26C26.701 98.3 26.2477 98.3 25.7544 98.26C25.4744 98.2333 25.2477 98.2 25.0744 98.16C24.901 98.12 24.7344 98.0733 24.5744 98.02C24.2144 96.46 23.9544 94.68 23.7944 92.68C23.6344 90.6667 23.6144 88.9 23.7344 87.38C24.0277 87.2867 24.3477 87.22 24.6944 87.18C25.041 87.1267 25.4077 87.1 25.7944 87.1C26.2477 87.1 26.6677 87.1333 27.0544 87.2C27.4544 87.2667 27.8077 87.36 28.1144 87.48C28.061 87.68 28.0144 87.92 27.9744 88.2C27.9344 88.4667 27.901 88.7667 27.8744 89.1C28.2077 88.34 28.6144 87.7467 29.0944 87.32C29.5744 86.88 30.0677 86.66 30.5744 86.66C31.321 86.66 31.9144 86.9733 32.3544 87.6C32.7944 88.2133 33.0144 89.0667 33.0144 90.16C33.0144 90.3467 33.0144 90.4933 33.0144 90.6C33.0144 90.6933 33.0077 90.78 32.9944 90.86C32.581 91.0067 32.061 91.1067 31.4344 91.16C30.821 91.2133 30.1544 91.22 29.4344 91.18C29.4477 90.98 29.4544 90.8467 29.4544 90.78C29.4677 90.7 29.4744 90.6267 29.4744 90.56C29.4744 90.2267 29.4344 89.9733 29.3544 89.8C29.2744 89.6133 29.1544 89.52 28.9944 89.52C28.741 89.52 28.5077 89.9067 28.2944 90.68C28.081 91.4533 27.921 92.54 27.8144 93.94ZM37.7264 94.84C37.7397 95.6133 37.7664 96.3 37.8064 96.9C37.8597 97.5 37.9331 98.08 38.0264 98.64C37.5597 98.8133 37.0664 98.9333 36.5464 99C36.0264 99.08 35.3797 99.12 34.6064 99.12C34.4331 98.3467 34.2997 97.3533 34.2064 96.14C34.1131 94.9133 34.0664 93.56 34.0664 92.08C34.0664 90.5333 34.1131 88.84 34.2064 87C34.2997 85.1467 34.4197 83.8267 34.5664 83.04C35.1531 83.04 35.9197 83.12 36.8664 83.28C37.8131 83.44 38.4997 83.6133 38.9264 83.8C38.7397 84.4533 38.5464 85.4533 38.3464 86.8C38.1464 88.1333 37.9931 89.4867 37.8864 90.86C38.2597 90.46 38.6464 90.0133 39.0464 89.52C39.4464 89.0267 40.2264 88.0067 41.3864 86.46C41.8797 86.6867 42.3797 87.0333 42.8864 87.5C43.3931 87.9667 43.7797 88.4267 44.0464 88.88C43.5264 89.5333 42.9197 90.1733 42.2264 90.8C41.5331 91.4133 40.7197 92.0533 39.7864 92.72C40.2931 93.2267 40.8797 93.74 41.5464 94.26C42.2131 94.78 43.1197 95.4133 44.2664 96.16C43.6264 96.9333 43.0664 97.5 42.5864 97.86C42.1197 98.2067 41.6197 98.46 41.0864 98.62C40.4731 98.0733 39.8864 97.4867 39.3264 96.86C38.7664 96.2333 38.2331 95.56 37.7264 94.84ZM54.2825 93.82C54.2825 94.3 54.2892 94.82 54.3025 95.38C54.3158 95.9267 54.3692 97.2533 54.4625 99.36C53.8625 99.36 53.2558 99.3333 52.6425 99.28C52.0292 99.24 51.4892 99.18 51.0225 99.1C50.7692 96.98 50.5825 94.94 50.4625 92.98C50.3425 91.0067 50.2825 89.0933 50.2825 87.24C50.2825 86.8267 50.2892 86.3867 50.3025 85.92C50.3292 85.4533 50.3692 84.92 50.4225 84.32C51.1158 83.9733 51.9558 83.6933 52.9425 83.48C53.9425 83.2667 54.9225 83.16 55.8825 83.16C57.5092 83.16 58.7625 83.5067 59.6425 84.2C60.5358 84.88 60.9825 85.8333 60.9825 87.06C60.9825 88.5533 60.3825 89.9067 59.1825 91.12C57.9958 92.3333 56.3625 93.2333 54.2825 93.82ZM56.8625 87.78C56.8625 87.0067 56.7092 86.42 56.4025 86.02C56.1092 85.62 55.6625 85.42 55.0625 85.42C54.9425 85.42 54.8492 85.42 54.7825 85.42C54.7292 85.42 54.6758 85.4267 54.6225 85.44C54.5425 86.3333 54.4758 87.26 54.4225 88.22C54.3692 89.18 54.3292 90.1867 54.3025 91.24C55.1558 91.0133 55.7958 90.6133 56.2225 90.04C56.6492 89.4667 56.8625 88.7133 56.8625 87.78ZM66.2528 98.84C65.9061 98.9467 65.3861 99.04 64.6928 99.12C64.0128 99.2 63.3928 99.24 62.8328 99.24C62.6328 96.96 62.4661 94.3733 62.3328 91.48C62.1995 88.5733 62.1328 86.0267 62.1328 83.84C62.4395 83.6267 62.8195 83.46 63.2728 83.34C63.7395 83.22 64.2195 83.16 64.7128 83.16C65.0861 83.16 65.4261 83.18 65.7328 83.22C66.0395 83.26 66.3461 83.32 66.6528 83.4C66.5328 84.7467 66.4328 86.88 66.3528 89.8C66.2861 92.72 66.2528 95.7333 66.2528 98.84ZM76.8825 90.84C76.8825 91.68 76.7692 92.8267 76.5425 94.28C76.3158 95.72 76.0225 97.2067 75.6625 98.74C75.1958 98.74 74.6958 98.7067 74.1625 98.64C73.6292 98.5867 73.1092 98.5067 72.6025 98.4C72.6292 98.1733 72.6492 98 72.6625 97.88C72.6758 97.76 72.6892 97.6533 72.7025 97.56C72.4225 97.68 72.1158 97.7733 71.7825 97.84C71.4492 97.9067 71.0892 97.94 70.7025 97.94C69.5958 97.94 68.7092 97.6667 68.0425 97.12C67.3758 96.56 67.0425 95.8133 67.0425 94.88C67.0425 93.9333 67.4225 93.2267 68.1825 92.76C68.9558 92.28 70.1158 92.04 71.6625 92.04C72.1692 92.04 72.5092 92.04 72.6825 92.04C72.8558 92.04 72.9958 92.0467 73.1025 92.06C73.0892 90.8067 73.0092 89.9533 72.8625 89.5C72.7158 89.0467 72.4758 88.82 72.1425 88.82C71.8225 88.82 71.5425 89.04 71.3025 89.48C71.0758 89.9067 70.9558 90.4533 70.9425 91.12C70.0892 91.12 69.3758 90.96 68.8025 90.64C68.2425 90.32 67.8558 89.86 67.6425 89.26C67.8958 88.5667 68.4692 87.9733 69.3625 87.48C70.2558 86.9867 71.2892 86.74 72.4625 86.74C73.9158 86.74 75.0158 87.0867 75.7625 87.78C76.5092 88.4733 76.8825 89.4933 76.8825 90.84ZM71.0225 95.16C71.0225 95.4667 71.1025 95.7067 71.2625 95.88C71.4225 96.04 71.6558 96.12 71.9625 96.12C72.1492 96.12 72.3158 96.1 72.4625 96.06C72.6092 96.02 72.7558 95.96 72.9025 95.88C72.9558 95.4133 72.9892 95.0133 73.0025 94.68C73.0292 94.3333 73.0492 94.02 73.0625 93.74C72.3692 93.78 71.8558 93.9133 71.5225 94.14C71.1892 94.3667 71.0225 94.7067 71.0225 95.16ZM88.3972 94.62C88.3972 97.3267 87.9039 99.3867 86.9172 100.8C85.9439 102.227 84.5505 102.94 82.7372 102.94C81.4839 102.94 80.5039 102.627 79.7972 102C79.1039 101.387 78.7572 100.633 78.7572 99.74C79.1705 99.42 79.6639 99.1467 80.2372 98.92C80.8239 98.7067 81.4172 98.56 82.0172 98.48C82.1372 99.3067 82.2772 99.88 82.4372 100.2C82.5972 100.533 82.8105 100.7 83.0772 100.7C83.5039 100.7 83.8172 100.347 84.0172 99.64C84.2305 98.9467 84.3572 97.78 84.3972 96.14C84.0505 96.66 83.6572 97.0467 83.2172 97.3C82.7905 97.5533 82.3039 97.68 81.7572 97.68C80.7439 97.68 79.8972 97.22 79.2172 96.3C78.5505 95.3667 78.2172 94.1933 78.2172 92.78C78.2172 91.8867 78.2772 91.04 78.3972 90.24C78.5172 89.4267 78.7372 88.42 79.0572 87.22C79.7372 87.22 80.3772 87.2533 80.9772 87.32C81.5905 87.3733 82.2439 87.4667 82.9372 87.6C82.6705 88.6267 82.4839 89.5067 82.3772 90.24C82.2705 90.9733 82.2172 91.7467 82.2172 92.56C82.2172 93.2267 82.3039 93.78 82.4772 94.22C82.6505 94.6467 82.8839 94.86 83.1772 94.86C83.4172 94.86 83.6305 94.7733 83.8172 94.6C84.0172 94.4133 84.1972 94.1333 84.3572 93.76C84.3039 92.76 84.1972 91.7133 84.0372 90.62C83.8772 89.5133 83.7239 88.72 83.5772 88.24C84.0439 88.0667 84.6439 87.9333 85.3772 87.84C86.1105 87.7467 86.8705 87.7 87.6572 87.7C87.8439 88.34 88.0105 89.36 88.1572 90.76C88.3172 92.1467 88.3972 93.4333 88.3972 94.62ZM99.7573 98.44C99.3707 98.5467 98.8773 98.64 98.2773 98.72C97.6907 98.8 97.1573 98.84 96.6773 98.84C96.624 98.5733 96.564 98.26 96.4973 97.9C96.4307 97.54 96.364 97.1067 96.2973 96.6C96.004 97.28 95.6307 97.78 95.1773 98.1C94.7373 98.4333 94.1973 98.6 93.5573 98.6C92.384 98.6 91.4773 98.1667 90.8373 97.3C90.1973 96.4333 89.8773 95.2267 89.8773 93.68C89.8773 91.72 90.364 90.16 91.3373 89C92.324 87.8267 93.6507 87.24 95.3173 87.24C95.384 87.24 95.4373 87.24 95.4773 87.24C95.5307 87.24 95.5773 87.2467 95.6173 87.26C95.604 86.6733 95.5907 86.1067 95.5773 85.56C95.564 85 95.5573 84.4733 95.5573 83.98C95.864 83.82 96.2973 83.6933 96.8573 83.6C97.4173 83.5067 97.9907 83.46 98.5773 83.46C98.844 83.46 99.104 83.4733 99.3573 83.5C99.6107 83.5267 99.864 83.5667 100.117 83.62C99.984 84.5533 99.8773 86.06 99.7973 88.14C99.7307 90.22 99.6973 92.8467 99.6973 96.02C99.6973 96.3933 99.6973 96.7667 99.6973 97.14C99.7107 97.5 99.7307 97.9333 99.7573 98.44ZM93.7773 93.2C93.7773 94.0533 93.864 94.7067 94.0373 95.16C94.2107 95.6 94.464 95.82 94.7973 95.82C95.0373 95.82 95.2573 95.62 95.4573 95.22C95.6707 94.82 95.8373 94.2533 95.9573 93.52C95.8907 92.6 95.8373 91.8267 95.7973 91.2C95.7573 90.56 95.724 89.9667 95.6973 89.42H95.5573C95.0107 89.42 94.5773 89.7533 94.2573 90.42C93.9373 91.0733 93.7773 92 93.7773 93.2ZM110.672 90.84C110.672 91.68 110.558 92.8267 110.332 94.28C110.105 95.72 109.812 97.2067 109.452 98.74C108.985 98.74 108.485 98.7067 107.952 98.64C107.418 98.5867 106.898 98.5067 106.392 98.4C106.418 98.1733 106.438 98 106.452 97.88C106.465 97.76 106.478 97.6533 106.492 97.56C106.212 97.68 105.905 97.7733 105.572 97.84C105.238 97.9067 104.878 97.94 104.492 97.94C103.385 97.94 102.498 97.6667 101.832 97.12C101.165 96.56 100.832 95.8133 100.832 94.88C100.832 93.9333 101.212 93.2267 101.972 92.76C102.745 92.28 103.905 92.04 105.452 92.04C105.958 92.04 106.298 92.04 106.472 92.04C106.645 92.04 106.785 92.0467 106.892 92.06C106.878 90.8067 106.798 89.9533 106.652 89.5C106.505 89.0467 106.265 88.82 105.932 88.82C105.612 88.82 105.332 89.04 105.092 89.48C104.865 89.9067 104.745 90.4533 104.732 91.12C103.878 91.12 103.165 90.96 102.592 90.64C102.032 90.32 101.645 89.86 101.432 89.26C101.685 88.5667 102.258 87.9733 103.152 87.48C104.045 86.9867 105.078 86.74 106.252 86.74C107.705 86.74 108.805 87.0867 109.552 87.78C110.298 88.4733 110.672 89.4933 110.672 90.84ZM104.812 95.16C104.812 95.4667 104.892 95.7067 105.052 95.88C105.212 96.04 105.445 96.12 105.752 96.12C105.938 96.12 106.105 96.1 106.252 96.06C106.398 96.02 106.545 95.96 106.692 95.88C106.745 95.4133 106.778 95.0133 106.792 94.68C106.818 94.3333 106.838 94.02 106.852 93.74C106.158 93.78 105.645 93.9133 105.312 94.14C104.978 94.3667 104.812 94.7067 104.812 95.16ZM117.196 93.36C117.649 93.4133 118.109 93.5333 118.576 93.72C119.056 93.9067 119.482 94.1467 119.856 94.44C119.856 95.4 119.556 96.2133 118.956 96.88C118.356 97.5467 117.522 97.88 116.456 97.88C115.109 97.88 114.062 97.4067 113.316 96.46C112.582 95.5 112.216 94.1133 112.216 92.3C112.216 91.8733 112.222 91.4333 112.236 90.98C112.249 90.5133 112.276 90.0267 112.316 89.52C112.049 89.48 111.796 89.4333 111.556 89.38C111.316 89.3267 111.102 89.2733 110.916 89.22C110.916 88.7933 110.956 88.3867 111.036 88C111.116 87.6133 111.229 87.3133 111.376 87.1C111.509 87.14 111.669 87.1867 111.856 87.24C112.056 87.28 112.296 87.32 112.576 87.36C112.656 86.8133 112.736 86.34 112.816 85.94C112.909 85.5267 113.002 85.16 113.096 84.84C113.896 84.84 114.669 84.8933 115.416 85C116.176 85.0933 116.789 85.22 117.256 85.38C117.176 85.7 117.089 86.06 116.996 86.46C116.902 86.8467 116.822 87.2467 116.756 87.66C117.316 87.6733 117.849 87.6733 118.356 87.66C118.876 87.6333 119.329 87.5933 119.716 87.54C119.716 87.8467 119.682 88.1933 119.616 88.58C119.549 88.9667 119.456 89.32 119.336 89.64C119.002 89.7067 118.576 89.76 118.056 89.8C117.536 89.8267 116.989 89.8333 116.416 89.82C116.349 90.3267 116.296 90.8333 116.256 91.34C116.216 91.8467 116.196 92.3267 116.196 92.78C116.196 93.9 116.236 94.66 116.316 95.06C116.396 95.4467 116.529 95.64 116.716 95.64C116.836 95.64 116.942 95.44 117.036 95.04C117.129 94.6267 117.182 94.0667 117.196 93.36ZM125.055 91.08C125.215 91.12 125.368 91.1533 125.515 91.18C125.675 91.1933 125.808 91.2 125.915 91.2C126.022 91.2 126.142 91.2 126.275 91.2C126.422 91.1867 126.522 91.1733 126.575 91.16C126.655 90.84 126.715 90.54 126.755 90.26C126.808 89.98 126.835 89.7267 126.835 89.5C126.835 89.22 126.795 89.0133 126.715 88.88C126.648 88.7467 126.542 88.68 126.395 88.68C126.128 88.68 125.875 88.9 125.635 89.34C125.395 89.7667 125.202 90.3467 125.055 91.08ZM127.475 94.16C127.982 94.2533 128.495 94.44 129.015 94.72C129.548 94.9867 129.982 95.2933 130.315 95.64C130.208 95.9867 129.962 96.36 129.575 96.76C129.188 97.16 128.728 97.4933 128.195 97.76C127.768 97.9733 127.302 98.1333 126.795 98.24C126.302 98.36 125.782 98.42 125.235 98.42C123.848 98.42 122.762 98.02 121.975 97.22C121.202 96.4067 120.815 95.3067 120.815 93.92C120.815 93.0533 120.948 92.2067 121.215 91.38C121.495 90.54 121.888 89.78 122.395 89.1C122.968 88.34 123.628 87.7467 124.375 87.32C125.122 86.8933 125.888 86.68 126.675 86.68C127.795 86.68 128.688 86.9667 129.355 87.54C130.022 88.1 130.355 88.8533 130.355 89.8C130.355 90.2267 130.308 90.7 130.215 91.22C130.135 91.7267 130.028 92.1667 129.895 92.54C129.482 92.74 128.968 92.8933 128.355 93C127.755 93.0933 127.035 93.14 126.195 93.14C125.955 93.14 125.715 93.1267 125.475 93.1C125.248 93.0733 125.022 93.04 124.795 93C124.782 93.08 124.775 93.1733 124.775 93.28C124.775 93.3733 124.775 93.52 124.775 93.72C124.775 94.52 124.875 95.1333 125.075 95.56C125.288 95.9867 125.588 96.2 125.975 96.2C126.228 96.2 126.502 95.9933 126.795 95.58C127.088 95.1667 127.315 94.6933 127.475 94.16ZM137.253 91.28C138.453 92 139.253 92.6467 139.653 93.22C140.067 93.7933 140.273 94.4333 140.273 95.14C140.273 96.22 139.807 97.12 138.873 97.84C137.94 98.5467 136.8 98.9 135.453 98.9C134.307 98.9 133.347 98.5533 132.573 97.86C131.8 97.1667 131.413 96.3467 131.413 95.4C131.72 95.2533 132.127 95.1333 132.633 95.04C133.14 94.9333 133.593 94.88 133.993 94.88C133.993 95.4667 134.113 95.94 134.353 96.3C134.607 96.66 134.96 96.84 135.413 96.84C135.747 96.84 136 96.7667 136.173 96.62C136.347 96.4733 136.433 96.26 136.433 95.98C136.433 95.7 136.32 95.4267 136.093 95.16C135.88 94.8933 135.393 94.5267 134.633 94.06C133.5 93.3533 132.747 92.7333 132.373 92.2C132 91.6533 131.813 91.04 131.813 90.36C131.813 89.2933 132.22 88.4133 133.033 87.72C133.86 87.0133 134.913 86.66 136.193 86.66C137.46 86.66 138.487 86.94 139.273 87.5C140.073 88.06 140.58 88.8467 140.793 89.86C140.407 90.1133 139.967 90.3133 139.473 90.46C138.98 90.5933 138.333 90.6867 137.533 90.74C137.44 90.1133 137.293 89.66 137.093 89.38C136.907 89.0867 136.647 88.94 136.313 88.94C136.087 88.94 135.907 89.0067 135.773 89.14C135.653 89.2733 135.593 89.4533 135.593 89.68C135.593 89.8933 135.693 90.1133 135.893 90.34C136.093 90.5533 136.547 90.8667 137.253 91.28Z" fill="#4A4A4A"/>
<g clip-path="url(#clip0)">
<path d="M85.5759 44.7345C84.2918 44.3592 82.9926 44.6602 82.7595 45.2066C82.5265 45.7528 82.1291 49.4264 83.413 49.8018C84.6969 50.1771 87.1759 47.112 87.409 46.5657C87.6423 46.0195 86.8598 45.11 85.5759 44.7345Z" fill="#4A4A4A"/>
<path d="M111.566 59.3356C111.223 59.2321 110.844 59.3781 110.719 59.6616L110.705 59.6931C110.477 60.2113 110.191 60.7156 109.887 61.1676C108.824 62.7666 107.227 64.2101 105.434 64.9063C105.283 63.4517 104.343 61.5204 99.4476 57.882C90.7787 53.1352 88.6931 50.8043 88.6931 50.8043C88.6931 50.8043 88.195 50.0829 87.5714 49.1933C86.3488 50.4725 84.6546 51.8111 82.7881 51.2656C80.7372 50.6661 80.6658 48.3646 80.6424 47.6085C80.6233 46.9913 80.6668 46.2139 80.7679 45.5766L80.7224 45.5855C79.0108 45.922 77.6684 47.02 77.2417 48.4324L75.3058 49.4133C74.567 49.7875 74.3945 50.6148 74.9381 51.1725L76.0918 52.3559C77.0332 53.3215 78.6279 53.6625 80.0169 53.1957C80.6148 52.9946 81.2877 53.0088 81.874 53.2322C82.4602 53.4557 82.9088 53.8697 83.1132 54.3763C83.9038 56.3368 85.1818 59.3197 86.3404 61.2003L84.1954 69.3719C83.9681 70.2381 84.6323 71.093 85.6792 71.2812C86.7276 71.4695 87.7592 70.9183 87.9862 70.0532L89.584 63.9661C90.5252 64.2312 91.7495 64.4405 93.0776 64.647C93.4348 63.7757 94.0308 62.9574 94.8686 62.264C95.2507 61.948 95.8694 61.948 96.2514 62.264C96.6449 62.5897 96.6132 63.1089 96.2514 63.4083C94.7302 64.6671 94.2866 66.4611 94.8893 68.0357H92.8693H92.6366C91.5654 68.0357 90.6971 68.7543 90.6971 69.6408C90.6971 70.5273 91.5654 71.2459 92.6366 71.2459C100.897 71.2459 99.8197 71.2431 100.955 71.2495C102.893 71.2495 104.679 69.5226 105.239 67.8755C107.893 66.8391 110.222 64.7297 111.441 61.7254C111.669 61.1715 111.864 60.563 111.991 59.9396C112.043 59.6851 111.87 59.4275 111.566 59.3356Z" fill="#4A4A4A"/>
<path d="M31.9967 69.3764L32.5286 64.6782C30.6402 62.4202 30.4042 59.0385 31.1644 56.8715C29.0098 55.9689 26.7699 54.3281 25.0549 52.0579L25 68.1807C24.9937 70.0536 26.8233 71.5762 29.0863 71.5815C29.0902 71.5815 29.0943 71.5815 29.0982 71.5815C30.2797 71.5815 31.3418 71.165 32.09 70.5024C31.9882 70.1428 31.9529 69.764 31.9967 69.3764Z" fill="#4A4A4A"/>
<path d="M40.9234 65.8957L40.4547 70.0324C40.3929 70.5786 40.1832 71.083 39.8634 71.5234C41.7679 71.2353 43.2149 69.8597 43.2207 68.1999L43.2367 63.5344C42.4877 64.5377 41.722 65.3216 40.9234 65.8957Z" fill="#4A4A4A"/>
<path d="M33.7407 12.8987C37.905 12.8987 41.2808 10.1049 41.2808 6.6586C41.2808 3.21229 37.905 0.418503 33.7407 0.418503C29.5764 0.418503 26.2006 3.21229 26.2006 6.6586C26.2006 10.1049 29.5764 12.8987 33.7407 12.8987Z" fill="#4A4A4A"/>
<path d="M70.5236 49.0036L68.5494 48.0033C68.1278 46.6079 66.8203 45.4576 64.9535 45.091C65.0567 45.741 65.101 46.5337 65.0816 47.1631C65.0578 47.9343 64.985 50.2812 62.8936 50.8925C60.8514 51.4893 57.6589 48.4667 57.6426 48.4849C54.006 45.1283 51.0729 41.1316 49.2111 37.3033C49.2798 37.2469 49.3489 37.1911 49.4133 37.1294C50.7243 35.8692 50.5523 33.9681 49.0298 32.8834L39.8081 26.3139L36.3363 19.1236L41.881 24.6431L43.3357 25.201V19.2413C43.3357 17.0749 41.2137 15.3187 38.5959 15.3187H29.9163C27.2985 15.3187 25.1765 17.0749 25.1765 19.2413C25.1765 44.4221 25.1106 35.8521 25.0734 46.7251C26.3529 46.187 28.0132 46.4141 29.0133 47.7117C29.9584 48.9256 31.606 50.2314 33.2551 50.8457C33.2898 40.7252 33.2955 41.4014 33.2689 41.1617H35.136C35.1079 41.411 35.119 40.6435 35.0826 51.2886C35.6505 51.3598 36.3431 51.3298 36.9329 51.2515C38.4302 50.6498 39.2209 50.644 43.2824 50.1469C43.3143 40.7889 43.3357 40.2266 43.3357 40.2266C43.3357 40.2266 33.0452 33.0662 31.2077 31.7586C30.6529 31.3639 30.3455 30.8124 30.2983 30.2525L29.5795 21.3586L33.3817 29.2326C33.5987 29.682 33.9435 30.0813 34.3866 30.3971L44.2822 37.4471C44.9445 37.9189 45.7534 38.1564 46.5639 38.173C48.6101 42.4236 51.8731 46.7758 55.9167 50.4073C55.9166 50.4075 56.0126 50.4895 56.0124 50.4895C42.7036 52.0373 40.2253 52.438 37.6379 53.0623C37.5006 53.0777 37.8547 53.0317 37.0331 53.1407C35.5705 53.3474 33.4724 53.108 31.7433 52.3211C28.8016 51.0649 27.1087 48.6866 26.9405 48.5299C26.4293 48.054 25.4732 48.5199 25.7719 49.1298C26.7247 51.0747 28.465 52.9951 30.2579 54.148C31.3318 54.8692 32.8001 55.542 34.2028 55.8802C32.3314 58.1217 32.7567 62.1814 34.8733 64.1082L34.2566 69.5522C34.1547 70.4523 34.9538 71.2502 36.0415 71.3346C37.1247 71.4192 38.0929 70.7604 38.1952 69.8576C38.7116 65.3004 38.6652 65.708 38.7584 64.8871C40.0154 64.2724 41.0827 62.941 41.8613 61.7558L41.8248 61.7409C42.5439 60.7974 42.9542 59.6169 42.9542 58.3587C42.9542 57.8731 43.4302 57.4794 44.0168 57.4794C44.6033 57.4794 45.0793 57.8731 45.0793 58.3587C45.0793 59.4544 44.8287 60.493 44.3823 61.4221C47.3328 61.7369 53.2923 62.3517 54.9777 62.5012L54.7572 69.6631C54.7293 70.5668 55.592 71.318 56.6841 71.341C56.7013 71.3413 56.7186 71.3416 56.7354 71.3416C57.8042 71.3416 58.6844 70.636 58.7116 69.7464L58.9655 61.499C60.2832 59.4542 61.4441 56.801 62.3488 54.5907C62.5654 54.063 62.7556 53.3067 63.8264 52.8985C65.3143 52.3309 65.781 53.2248 67.4599 53.0476C67.9322 52.9981 68.3676 52.8778 68.7939 52.6683C68.8167 52.6572 68.8396 52.6469 68.8621 52.6354C69.4794 52.316 70.9414 50.8493 71.1159 50.4934C71.3859 49.9414 71.1322 49.312 70.5236 49.0036Z" fill="#4A4A4A"/>
<path d="M62.9225 44.714C62.6847 44.1568 61.3597 43.8498 60.0504 44.2326C58.7412 44.6154 57.9431 45.5431 58.181 46.1001C58.419 46.6574 60.9471 49.7831 62.2562 49.4002C63.5653 49.0174 63.1602 45.271 62.9225 44.714Z" fill="#4A4A4A"/>
<path d="M82.6688 10.09C82.4295 10.009 82.1297 10.0968 82.0119 10.3954C81.6889 11.2154 81.1685 12.1019 80.5501 12.8423C79.4108 14.2352 78.1334 14.9297 76.7559 15.2622C75.6416 14.534 75.8638 14.7084 63.5845 13.025C63.5845 13.025 62.9706 12.2548 62.2733 11.3893C61.3625 12.5254 60.0528 13.7948 58.6206 13.3258C56.9511 12.7793 56.947 10.3669 57.1738 8.76384L57.1412 8.77109C55.9155 9.0409 54.954 9.92139 54.6486 11.0541L53.3887 11.7688L52.0479 9.92213C51.7027 9.44691 51.0072 9.3208 50.4945 9.64064C49.9817 9.96036 49.8456 10.6048 50.1908 11.08L55.6621 18.616C56.0073 19.0913 56.7028 19.2172 57.2154 18.8975C57.7283 18.5778 57.8643 17.9333 57.5192 17.4581L55.762 15.0378C56.0557 15.0331 56.3518 14.9807 56.6358 14.8738C57.0639 14.7125 57.5459 14.7238 57.9657 14.903C58.3854 15.0822 58.7068 15.4141 58.8532 15.8205C59.4356 17.4369 60.3867 19.9202 61.2347 21.4182L59.2894 27.7672C59.0799 28.4512 59.5083 29.1628 60.2462 29.3571C60.9856 29.5516 61.7527 29.1531 61.9619 28.4705L63.7924 22.4956C65.6482 22.3001 68.7358 21.9506 71.6208 21.6058C71.3075 20.8753 71.1314 20.0586 71.1314 19.1969C71.1314 18.8151 71.4654 18.5055 71.8776 18.5055C72.2896 18.5055 72.6237 18.815 72.6237 19.1969C72.6237 20.1902 72.9316 21.1075 73.4168 21.8563C74.2607 23.1588 75.7887 24.8114 77.2695 25.571L78.7713 28.6491C79.0873 29.297 79.9101 29.5845 80.6091 29.2916C81.3081 28.9987 81.6186 28.2362 81.3025 27.5885L79.605 24.1096C79.8578 22.6525 79.832 20.4534 79.5212 19.0736C79.3978 18.5263 79.0629 17.5621 78.581 17.014C80.053 16.1587 81.1496 14.9812 81.894 13.6219C82.3848 12.7447 82.7997 11.6672 82.993 10.6066C83.0328 10.3886 82.9008 10.1685 82.6688 10.09Z" fill="#4A4A4A"/>
<path d="M60.7432 7.1338C59.8238 6.83289 58.8933 7.0743 58.7263 7.51239C58.5593 7.95036 58.2748 10.8963 59.1941 11.1974C60.1136 11.4983 61.889 9.04042 62.056 8.60245C62.223 8.16449 61.6627 7.43471 60.7432 7.1338Z" fill="#4A4A4A"/>
</g>
<defs>
<clipPath id="clip0">
<rect x="25" width="87" height="72" fill="white"/>
</clipPath>
</defs>
</svg>
